<?xml version="1.0" encoding="UTF-8" standalone="no"?>
<!DOCTYPE svg PUBLIC "-//W3C//DTD SVG 1.1//EN"
 "http://www.w3.org/Graphics/SVG/1.1/DTD/svg11.dtd">
<!-- Generated by graphviz version 2.46.0 (20210118.1747)
 -->
<!-- Title: dependency&#45;cruiser output Pages: 1 -->
<svg width="568pt" height="463pt"
 viewBox="0.00 0.00 568.00 463.43" xmlns="http://www.w3.org/2000/svg" xmlns:xlink="http://www.w3.org/1999/xlink">
<g id="graph0" class="graph" transform="scale(1 1) rotate(0) translate(4 459.43)">
<title>dependency&#45;cruiser output</title>
<polygon fill="white" stroke="transparent" points="-4,4 -4,-459.43 564,-459.43 564,4 -4,4"/>
<g id="clust2" class="cluster">
<title>cluster_source</title>
<path fill="#ffffff" stroke="black" stroke-width="2" d="M20,-193.43C20,-193.43 516.5,-193.43 516.5,-193.43 522.5,-193.43 528.5,-199.43 528.5,-205.43 528.5,-205.43 528.5,-435.43 528.5,-435.43 528.5,-441.43 522.5,-447.43 516.5,-447.43 516.5,-447.43 20,-447.43 20,-447.43 14,-447.43 8,-441.43 8,-435.43 8,-435.43 8,-205.43 8,-205.43 8,-199.43 14,-193.43 20,-193.43"/>
<text text-anchor="middle" x="268.25" y="-436.23" font-family="Helvetica,sans-Serif" font-weight="bold" font-size="9.00">source</text>
</g>
<g id="clust3" class="cluster">
<title>cluster_source/kernelType</title>
<path fill="#ffffff" stroke="black" stroke-width="2" d="M162,-279.43C162,-279.43 353,-279.43 353,-279.43 359,-279.43 365,-285.43 365,-291.43 365,-291.43 365,-391.43 365,-391.43 365,-397.43 359,-403.43 353,-403.43 353,-403.43 162,-403.43 162,-403.43 156,-403.43 150,-397.43 150,-391.43 150,-391.43 150,-291.43 150,-291.43 150,-285.43 156,-279.43 162,-279.43"/>
<text text-anchor="middle" x="257.5" y="-392.23" font-family="Helvetica,sans-Serif" font-weight="bold" font-size="9.00">kernelType</text>
</g>
<g id="clust1" class="cluster">
<title>cluster_node_modules</title>
<path fill="#ffffff" stroke="black" stroke-width="2" d="M447,-83.43C447,-83.43 540,-83.43 540,-83.43 546,-83.43 552,-89.43 552,-95.43 552,-95.43 552,-153.43 552,-153.43 552,-159.43 546,-165.43 540,-165.43 540,-165.43 447,-165.43 447,-165.43 441,-165.43 435,-159.43 435,-153.43 435,-153.43 435,-95.43 435,-95.43 435,-89.43 441,-83.43 447,-83.43"/>
<text text-anchor="middle" x="493.5" y="-154.23" font-family="Helvetica,sans-Serif" font-weight="bold" font-size="9.00">node_modules</text>
</g>
<!-- node_modules/elm&#45;code&#45;generator -->
<g id="node1" class="node">
<title>node_modules/elm&#45;code&#45;generator</title>
<g id="a_node1"><a xlink:href="node_modules/elm-code-generator" xlink:title="elm&#45;code&#45;generator">
<polygon fill="#c40b0a" fill-opacity="0.101961" stroke="black" points="542.5,-109.43 446.5,-109.43 444.5,-107.43 444.5,-91.43 540.5,-91.43 542.5,-93.43 542.5,-109.43"/>
<polyline fill="none" stroke="black" points="540.5,-107.43 444.5,-107.43 "/>
<polyline fill="none" stroke="black" points="540.5,-107.43 540.5,-91.43 "/>
<polyline fill="none" stroke="black" points="540.5,-107.43 542.5,-109.43 "/>
<text text-anchor="middle" x="493.5" y="-98.23" font-family="Helvetica,sans-Serif" font-size="9.00" fill="#c40b0a">elm&#45;code&#45;generator</text>
</a>
</g>
</g>
<!-- node_modules/js&#45;ts&#45;code&#45;generator -->
<g id="node2" class="node">
<title>node_modules/js&#45;ts&#45;code&#45;generator</title>
<g id="a_node2"><a xlink:href="node_modules/js-ts-code-generator" xlink:title="js&#45;ts&#45;code&#45;generator">
<polygon fill="#c40b0a" fill-opacity="0.101961" stroke="black" points="544,-139.43 445,-139.43 443,-137.43 443,-121.43 542,-121.43 544,-123.43 544,-139.43"/>
<polyline fill="none" stroke="black" points="542,-137.43 443,-137.43 "/>
<polyline fill="none" stroke="black" points="542,-137.43 542,-121.43 "/>
<polyline fill="none" stroke="black" points="542,-137.43 544,-139.43 "/>
<text text-anchor="middle" x="493.5" y="-128.23" font-family="Helvetica,sans-Serif" font-size="9.00" fill="#c40b0a">js&#45;ts&#45;code&#45;generator</text>
</a>
</g>
</g>
<!-- source/data.ts -->
<g id="node3" class="node">
<title>source/data.ts</title>
<g id="a_node3"><a xlink:href="source/data.ts" xlink:title="data.ts">
<path fill="#ddfeff" stroke="black" d="M514.5,-277.43C514.5,-277.43 472.5,-277.43 472.5,-277.43 469.5,-277.43 466.5,-274.43 466.5,-271.43 466.5,-271.43 466.5,-265.43 466.5,-265.43 466.5,-262.43 469.5,-259.43 472.5,-259.43 472.5,-259.43 514.5,-259.43 514.5,-259.43 517.5,-259.43 520.5,-262.43 520.5,-265.43 520.5,-265.43 520.5,-271.43 520.5,-271.43 520.5,-274.43 517.5,-277.43 514.5,-277.43"/>
<text text-anchor="middle" x="493.5" y="-266.23" font-family="Helvetica,sans-Serif" font-size="9.00">data.ts</text>
</a>
</g>
</g>
<!-- source/kernelType/binary.ts -->
<g id="node4" class="node">
<title>source/kernelType/binary.ts</title>
<g id="a_node4"><a xlink:href="source/kernelType/binary.ts" xlink:title="binary.ts">
<path fill="#ddfeff" stroke="black" d="M206,-305.43C206,-305.43 164,-305.43 164,-305.43 161,-305.43 158,-302.43 158,-299.43 158,-299.43 158,-293.43 158,-293.43 158,-290.43 161,-287.43 164,-287.43 164,-287.43 206,-287.43 206,-287.43 209,-287.43 212,-290.43 212,-293.43 212,-293.43 212,-299.43 212,-299.43 212,-302.43 209,-305.43 206,-305.43"/>
<text text-anchor="middle" x="185" y="-294.23" font-family="Helvetica,sans-Serif" font-size="9.00">binary.ts</text>
</a>
</g>
</g>
<!-- source/kernelType/binary.ts&#45;&gt;node_modules/js&#45;ts&#45;code&#45;generator -->
<g id="edge3" class="edge">
<title>source/kernelType/binary.ts&#45;&gt;node_modules/js&#45;ts&#45;code&#45;generator</title>
<path fill="none" stroke="#000000" stroke-opacity="0.200000" d="M186.3,-287.05C187.68,-250.64 194.7,-119.44 225,-94.43 259.62,-65.85 390.04,-68.96 427,-94.43 435.22,-100.1 427.56,-108.76 435,-115.43 436.03,-116.35 437.11,-117.22 438.23,-118.04"/>
<polygon fill="#000000" fill-opacity="0.200000" stroke="#000000" stroke-opacity="0.200000" points="437.19,-119.86 443.39,-121.29 439.43,-116.31 437.19,-119.86"/>
</g>
<!-- source/kernelType/codec.ts -->
<g id="node5" class="node">
<title>source/kernelType/codec.ts</title>
<g id="a_node5"><a xlink:href="source/kernelType/codec.ts" xlink:title="codec.ts">
<path fill="#ddfeff" stroke="black" d="M351,-308.43C351,-308.43 309,-308.43 309,-308.43 306,-308.43 303,-305.43 303,-302.43 303,-302.43 303,-296.43 303,-296.43 303,-293.43 306,-290.43 309,-290.43 309,-290.43 351,-290.43 351,-290.43 354,-290.43 357,-293.43 357,-296.43 357,-296.43 357,-302.43 357,-302.43 357,-305.43 354,-308.43 351,-308.43"/>
<text text-anchor="middle" x="330" y="-297.23" font-family="Helvetica,sans-Serif" font-size="9.00">codec.ts</text>
</a>
</g>
</g>
<!-- source/kernelType/binary.ts&#45;&gt;source/kernelType/codec.ts -->
<g id="edge1" class="edge">
<title>source/kernelType/binary.ts&#45;&gt;source/kernelType/codec.ts</title>
<path fill="none" stroke="#000000" stroke-width="2" stroke-opacity="0.200000" d="M212.07,-296.88C233.11,-297.26 263.46,-297.83 290,-298.43 292.23,-298.48 294.53,-298.53 296.85,-298.59"/>
<polygon fill="#000000" fill-opacity="0.200000" stroke="#000000" stroke-width="2" stroke-opacity="0.200000" points="296.94,-300.69 302.99,-298.74 297.04,-296.49 296.94,-300.69"/>
</g>
<!-- source/kernelType/int32.ts -->
<g id="node6" class="node">
<title>source/kernelType/int32.ts</title>
<g id="a_node6"><a xlink:href="source/kernelType/int32.ts" xlink:title="int32.ts">
<path fill="#ddfeff" stroke="black" d="M278.5,-333.43C278.5,-333.43 236.5,-333.43 236.5,-333.43 233.5,-333.43 230.5,-330.43 230.5,-327.43 230.5,-327.43 230.5,-321.43 230.5,-321.43 230.5,-318.43 233.5,-315.43 236.5,-315.43 236.5,-315.43 278.5,-315.43 278.5,-315.43 281.5,-315.43 284.5,-318.43 284.5,-321.43 284.5,-321.43 284.5,-327.43 284.5,-327.43 284.5,-330.43 281.5,-333.43 278.5,-333.43"/>
<text text-anchor="middle" x="257.5" y="-322.23" font-family="Helvetica,sans-Serif" font-size="9.00">int32.ts</text>
</a>
</g>
</g>
<!-- source/kernelType/binary.ts&#45;&gt;source/kernelType/int32.ts -->
<g id="edge2" class="edge">
<title>source/kernelType/binary.ts&#45;&gt;source/kernelType/int32.ts</title>
<path fill="none" stroke="#000000" stroke-width="2" stroke-opacity="0.200000" d="M208.69,-305.44C214.74,-307.84 221.34,-310.47 227.66,-312.98"/>
<polygon fill="#000000" fill-opacity="0.200000" stroke="#000000" stroke-width="2" stroke-opacity="0.200000" points="227.01,-314.98 233.36,-315.24 228.56,-311.07 227.01,-314.98"/>
</g>
<!-- source/kernelType/codec.ts&#45;&gt;node_modules/js&#45;ts&#45;code&#45;generator -->
<g id="edge5" class="edge">
<title>source/kernelType/codec.ts&#45;&gt;node_modules/js&#45;ts&#45;code&#45;generator</title>
<path fill="none" stroke="#000000" stroke-opacity="0.200000" d="M336.25,-290.39C343.36,-278.77 357.02,-258.53 373,-245.43 393.75,-228.42 409.86,-239.08 427,-218.43 435.27,-208.47 428.56,-201.65 435,-190.43 445.53,-172.09 462.85,-155.09 475.73,-143.9"/>
<polygon fill="#000000" fill-opacity="0.200000" stroke="#000000" stroke-opacity="0.200000" points="477.39,-145.25 480.6,-139.76 474.67,-142.05 477.39,-145.25"/>
</g>
<!-- source/util.ts -->
<g id="node7" class="node">
<title>source/util.ts</title>
<g id="a_node7"><a xlink:href="source/util.ts" xlink:title="util.ts">
<path fill="#ddfeff" stroke="black" d="M421,-308.43C421,-308.43 379,-308.43 379,-308.43 376,-308.43 373,-305.43 373,-302.43 373,-302.43 373,-296.43 373,-296.43 373,-293.43 376,-290.43 379,-290.43 379,-290.43 421,-290.43 421,-290.43 424,-290.43 427,-293.43 427,-296.43 427,-296.43 427,-302.43 427,-302.43 427,-305.43 424,-308.43 421,-308.43"/>
<text text-anchor="middle" x="400" y="-297.23" font-family="Helvetica,sans-Serif" font-size="9.00">util.ts</text>
</a>
</g>
</g>
<!-- source/kernelType/codec.ts&#45;&gt;source/util.ts -->
<g id="edge4" class="edge">
<title>source/kernelType/codec.ts&#45;&gt;source/util.ts</title>
<path fill="none" stroke="#000000" stroke-width="2" stroke-opacity="0.200000" d="M357.1,-299.43C360.12,-299.43 363.23,-299.43 366.33,-299.43"/>
<polygon fill="#000000" fill-opacity="0.200000" stroke="#000000" stroke-width="2" stroke-opacity="0.200000" points="366.64,-301.53 372.64,-299.43 366.64,-297.33 366.64,-301.53"/>
</g>
<!-- source/kernelType/int32.ts&#45;&gt;node_modules/js&#45;ts&#45;code&#45;generator -->
<g id="edge10" class="edge">
<title>source/kernelType/int32.ts&#45;&gt;node_modules/js&#45;ts&#45;code&#45;generator</title>
<path fill="none" stroke="#000000" stroke-opacity="0.200000" d="M284.59,-316.52C286.65,-315.09 288.5,-313.41 290,-311.43 320.47,-271.09 270.95,-237.53 303,-198.43 321.36,-176.04 399.88,-168.57 427,-158.43 440.34,-153.44 454.93,-147.27 466.95,-142"/>
<polygon fill="#000000" fill-opacity="0.200000" stroke="#000000" stroke-opacity="0.200000" points="467.99,-143.83 472.63,-139.49 466.29,-139.99 467.99,-143.83"/>
</g>
<!-- source/kernelType/int32.ts&#45;&gt;source/kernelType/codec.ts -->
<g id="edge9" class="edge">
<title>source/kernelType/int32.ts&#45;&gt;source/kernelType/codec.ts</title>
<path fill="none" stroke="#000000" stroke-width="2" stroke-opacity="0.200000" d="M283.95,-315.4C288.39,-313.83 293.05,-312.18 297.63,-310.55"/>
<polygon fill="#000000" fill-opacity="0.200000" stroke="#000000" stroke-width="2" stroke-opacity="0.200000" points="298.4,-312.51 303.35,-308.53 296.99,-308.55 298.4,-312.51"/>
</g>
<!-- source/kernelType/int32.ts&#45;&gt;source/util.ts -->
<g id="edge8" class="edge">
<title>source/kernelType/int32.ts&#45;&gt;source/util.ts</title>
<path fill="none" stroke="#000000" stroke-width="2" stroke-opacity="0.200000" d="M284.73,-324.3C306.54,-323.64 338.22,-321.4 365,-314.43 368.52,-313.51 372.14,-312.27 375.64,-310.9"/>
<polygon fill="#000000" fill-opacity="0.200000" stroke="#000000" stroke-width="2" stroke-opacity="0.200000" points="376.67,-312.74 381.39,-308.48 375.04,-308.87 376.67,-312.74"/>
</g>
<!-- source/util.ts&#45;&gt;node_modules/js&#45;ts&#45;code&#45;generator -->
<g id="edge30" class="edge">
<title>source/util.ts&#45;&gt;node_modules/js&#45;ts&#45;code&#45;generator</title>
<path fill="none" stroke="#000000" stroke-opacity="0.200000" d="M406.28,-290.42C412.26,-279.79 421.85,-261.41 427,-244.43 434.04,-221.21 424.32,-212.22 435,-190.43 444.39,-171.27 462.11,-154.23 475.41,-143.25"/>
<polygon fill="#000000" fill-opacity="0.200000" stroke="#000000" stroke-opacity="0.200000" points="476.73,-144.89 480.08,-139.49 474.09,-141.61 476.73,-144.89"/>
</g>
<!-- source/util.ts&#45;&gt;source/data.ts -->
<g id="edge29" class="edge">
<title>source/util.ts&#45;&gt;source/data.ts</title>
<path fill="none" stroke="#000000" stroke-width="2" stroke-opacity="0.200000" d="M427.47,-290.46C437.8,-286.96 449.74,-282.92 460.54,-279.26"/>
<polygon fill="#000000" fill-opacity="0.200000" stroke="#000000" stroke-width="2" stroke-opacity="0.200000" points="461.4,-281.18 466.41,-277.27 460.05,-277.2 461.4,-281.18"/>
</g>
<!-- source/kernelType/hexString.ts -->
<g id="node8" class="node">
<title>source/kernelType/hexString.ts</title>
<g id="a_node8"><a xlink:href="source/kernelType/hexString.ts" xlink:title="hexString.ts">
<path fill="#ddfeff" stroke="black" d="M284,-377.43C284,-377.43 231,-377.43 231,-377.43 228,-377.43 225,-374.43 225,-371.43 225,-371.43 225,-365.43 225,-365.43 225,-362.43 228,-359.43 231,-359.43 231,-359.43 284,-359.43 284,-359.43 287,-359.43 290,-362.43 290,-365.43 290,-365.43 290,-371.43 290,-371.43 290,-374.43 287,-377.43 284,-377.43"/>
<text text-anchor="middle" x="257.5" y="-366.23" font-family="Helvetica,sans-Serif" font-size="9.00">hexString.ts</text>
</a>
</g>
</g>
<!-- source/kernelType/hexString.ts&#45;&gt;node_modules/js&#45;ts&#45;code&#45;generator -->
<g id="edge7" class="edge">
<title>source/kernelType/hexString.ts&#45;&gt;node_modules/js&#45;ts&#45;code&#45;generator</title>
<path fill="none" stroke="#000000" stroke-opacity="0.200000" d="M271.59,-359.34C278.05,-354.21 285.42,-347.26 290,-339.43 302.68,-317.75 290.36,-306.14 303,-284.43 324.58,-247.36 430.44,-172.68 473.86,-143"/>
<polygon fill="#000000" fill-opacity="0.200000" stroke="#000000" stroke-opacity="0.200000" points="475.3,-144.56 479.08,-139.45 472.94,-141.09 475.3,-144.56"/>
</g>
<!-- source/kernelType/hexString.ts&#45;&gt;source/kernelType/codec.ts -->
<g id="edge6" class="edge">
<title>source/kernelType/hexString.ts&#45;&gt;source/kernelType/codec.ts</title>
<path fill="none" stroke="#000000" stroke-width="2" stroke-opacity="0.200000" d="M279.45,-359.32C283.36,-356.88 287.11,-353.92 290,-350.43 300.3,-337.96 292.96,-327.92 303.25,-313.37"/>
<polygon fill="#000000" fill-opacity="0.200000" stroke="#000000" stroke-width="2" stroke-opacity="0.200000" points="304.89,-314.68 307.05,-308.7 301.63,-312.03 304.89,-314.68"/>
</g>
<!-- source/kernelType/list.ts -->
<g id="node9" class="node">
<title>source/kernelType/list.ts</title>
<g id="a_node9"><a xlink:href="source/kernelType/list.ts" xlink:title="list.ts">
<path fill="#ddfeff" stroke="black" d="M206,-365.43C206,-365.43 164,-365.43 164,-365.43 161,-365.43 158,-362.43 158,-359.43 158,-359.43 158,-353.43 158,-353.43 158,-350.43 161,-347.43 164,-347.43 164,-347.43 206,-347.43 206,-347.43 209,-347.43 212,-350.43 212,-353.43 212,-353.43 212,-359.43 212,-359.43 212,-362.43 209,-365.43 206,-365.43"/>
<text text-anchor="middle" x="185" y="-354.23" font-family="Helvetica,sans-Serif" font-size="9.00">list.ts</text>
</a>
</g>
</g>
<!-- source/kernelType/list.ts&#45;&gt;node_modules/js&#45;ts&#45;code&#45;generator -->
<g id="edge14" class="edge">
<title>source/kernelType/list.ts&#45;&gt;node_modules/js&#45;ts&#45;code&#45;generator</title>
<path fill="none" stroke="#000000" stroke-opacity="0.200000" d="M206.45,-347.39C208.61,-345.69 210.55,-343.72 212,-341.43 230.08,-313.01 205.94,-218.19 225,-190.43 270.61,-124.01 372.87,-119.19 436.92,-123.55"/>
<polygon fill="#000000" fill-opacity="0.200000" stroke="#000000" stroke-opacity="0.200000" points="436.85,-125.66 442.99,-124 437.16,-121.47 436.85,-125.66"/>
</g>
<!-- source/kernelType/list.ts&#45;&gt;source/kernelType/codec.ts -->
<g id="edge12" class="edge">
<title>source/kernelType/list.ts&#45;&gt;source/kernelType/codec.ts</title>
<path fill="none" stroke="#000000" stroke-width="2" stroke-opacity="0.200000" d="M212.24,-353.41C240.98,-349.91 283.85,-344.03 290,-339.43 300.67,-331.45 293.65,-321.92 303,-312.43 303.09,-312.34 303.18,-312.25 303.27,-312.16"/>
<polygon fill="#000000" fill-opacity="0.200000" stroke="#000000" stroke-width="2" stroke-opacity="0.200000" points="304.42,-313.93 307.73,-308.5 301.76,-310.68 304.42,-313.93"/>
</g>
<!-- source/kernelType/list.ts&#45;&gt;source/kernelType/int32.ts -->
<g id="edge13" class="edge">
<title>source/kernelType/list.ts&#45;&gt;source/kernelType/int32.ts</title>
<path fill="none" stroke="#000000" stroke-width="2" stroke-opacity="0.200000" d="M206.01,-347.34C213.69,-343.86 222.55,-339.84 230.69,-336.14"/>
<polygon fill="#000000" fill-opacity="0.200000" stroke="#000000" stroke-width="2" stroke-opacity="0.200000" points="231.6,-338.04 236.19,-333.65 229.86,-334.21 231.6,-338.04"/>
</g>
<!-- source/kernelType/list.ts&#45;&gt;source/util.ts -->
<g id="edge11" class="edge">
<title>source/kernelType/list.ts&#45;&gt;source/util.ts</title>
<path fill="none" stroke="#000000" stroke-width="2" stroke-opacity="0.200000" d="M206.91,-365.43C208.73,-366.64 210.46,-367.97 212,-369.43 220.51,-377.52 214.86,-386.51 225,-392.43 249.95,-406.99 261.7,-398.21 290,-392.43 325.51,-385.17 338.06,-384.67 365,-360.43 379.07,-347.77 388.62,-327.87 393.93,-314.26"/>
<polygon fill="#000000" fill-opacity="0.200000" stroke="#000000" stroke-width="2" stroke-opacity="0.200000" points="395.95,-314.86 396.08,-308.51 392.02,-313.4 395.95,-314.86"/>
</g>
<!-- source/kernelType/string.ts -->
<g id="node10" class="node">
<title>source/kernelType/string.ts</title>
<g id="a_node10"><a xlink:href="source/kernelType/string.ts" xlink:title="string.ts">
<path fill="#ddfeff" stroke="black" d="M206,-335.43C206,-335.43 164,-335.43 164,-335.43 161,-335.43 158,-332.43 158,-329.43 158,-329.43 158,-323.43 158,-323.43 158,-320.43 161,-317.43 164,-317.43 164,-317.43 206,-317.43 206,-317.43 209,-317.43 212,-320.43 212,-323.43 212,-323.43 212,-329.43 212,-329.43 212,-332.43 209,-335.43 206,-335.43"/>
<text text-anchor="middle" x="185" y="-324.23" font-family="Helvetica,sans-Serif" font-size="9.00">string.ts</text>
</a>
</g>
</g>
<!-- source/kernelType/string.ts&#45;&gt;node_modules/js&#45;ts&#45;code&#45;generator -->
<g id="edge18" class="edge">
<title>source/kernelType/string.ts&#45;&gt;node_modules/js&#45;ts&#45;code&#45;generator</title>
<path fill="none" stroke="#000000" stroke-opacity="0.200000" d="M206.49,-317.41C208.64,-315.71 210.57,-313.73 212,-311.43 234.52,-275.33 193.91,-149.47 225,-120.43 255.2,-92.21 372.59,-108.04 441.41,-120.32"/>
<polygon fill="#000000" fill-opacity="0.200000" stroke="#000000" stroke-opacity="0.200000" points="441.23,-122.42 447.51,-121.42 441.98,-118.29 441.23,-122.42"/>
</g>
<!-- source/kernelType/string.ts&#45;&gt;source/kernelType/codec.ts -->
<g id="edge16" class="edge">
<title>source/kernelType/string.ts&#45;&gt;source/kernelType/codec.ts</title>
<path fill="none" stroke="#000000" stroke-width="2" stroke-opacity="0.200000" d="M203.44,-317.43C210.03,-314.4 217.71,-311.32 225,-309.43 248.55,-303.33 275.97,-300.88 296.74,-299.92"/>
<polygon fill="#000000" fill-opacity="0.200000" stroke="#000000" stroke-width="2" stroke-opacity="0.200000" points="297.05,-302.01 302.96,-299.67 296.88,-297.81 297.05,-302.01"/>
</g>
<!-- source/kernelType/string.ts&#45;&gt;source/kernelType/int32.ts -->
<g id="edge17" class="edge">
<title>source/kernelType/string.ts&#45;&gt;source/kernelType/int32.ts</title>
<path fill="none" stroke="#000000" stroke-width="2" stroke-opacity="0.200000" d="M212.25,-325.68C216.16,-325.57 220.22,-325.46 224.23,-325.34"/>
<polygon fill="#000000" fill-opacity="0.200000" stroke="#000000" stroke-width="2" stroke-opacity="0.200000" points="224.52,-327.44 230.46,-325.17 224.4,-323.24 224.52,-327.44"/>
</g>
<!-- source/kernelType/string.ts&#45;&gt;source/util.ts -->
<g id="edge15" class="edge">
<title>source/kernelType/string.ts&#45;&gt;source/util.ts</title>
<path fill="none" stroke="#000000" stroke-width="2" stroke-opacity="0.200000" d="M205.74,-335.6C208.07,-337.29 210.24,-339.23 212,-341.43 224.19,-356.7 209.27,-371.83 225,-383.43 248.25,-400.57 262.65,-392.74 290,-383.43 331.04,-369.45 368.66,-333.09 387.09,-313.09"/>
<polygon fill="#000000" fill-opacity="0.200000" stroke="#000000" stroke-width="2" stroke-opacity="0.200000" points="388.67,-314.48 391.15,-308.62 385.56,-311.66 388.67,-314.48"/>
</g>
<!-- source/main.ts -->
<g id="node11" class="node">
<title>source/main.ts</title>
<g id="a_node11"><a xlink:href="source/main.ts" xlink:title="main.ts">
<path fill="#ddfeff" stroke="black" d="M64,-233.43C64,-233.43 22,-233.43 22,-233.43 19,-233.43 16,-230.43 16,-227.43 16,-227.43 16,-221.43 16,-221.43 16,-218.43 19,-215.43 22,-215.43 22,-215.43 64,-215.43 64,-215.43 67,-215.43 70,-218.43 70,-221.43 70,-221.43 70,-227.43 70,-227.43 70,-230.43 67,-233.43 64,-233.43"/>
<text text-anchor="middle" x="43" y="-222.23" font-family="Helvetica,sans-Serif" font-size="9.00">main.ts</text>
</a>
</g>
</g>
<!-- source/main.ts&#45;&gt;node_modules/elm&#45;code&#45;generator -->
<g id="edge24" class="edge">
<title>source/main.ts&#45;&gt;node_modules/elm&#45;code&#45;generator</title>
<path fill="none" stroke="#000000" stroke-opacity="0.200000" d="M44.75,-215.04C47.63,-180.89 59.14,-63.83 83,-36.43 114.3,-0.49 136.34,-0.43 184,-0.43 184,-0.43 184,-0.43 331,-0.43 374.68,-0.43 389.7,1.29 427,-21.43 453.25,-37.41 473.86,-67.73 484.52,-85.8"/>
<polygon fill="#000000" fill-opacity="0.200000" stroke="#000000" stroke-opacity="0.200000" points="482.94,-87.26 487.74,-91.42 486.58,-85.17 482.94,-87.26"/>
</g>
<!-- source/main.ts&#45;&gt;node_modules/js&#45;ts&#45;code&#45;generator -->
<g id="edge25" class="edge">
<title>source/main.ts&#45;&gt;node_modules/js&#45;ts&#45;code&#45;generator</title>
<path fill="none" stroke="#000000" stroke-opacity="0.200000" d="M45.7,-215.41C53.56,-176.67 90.12,-26.43 184,-26.43 184,-26.43 184,-26.43 331,-26.43 374.68,-26.43 397.67,-15.07 427,-47.43 447.44,-69.98 415.02,-92.48 435,-115.43 435.86,-116.42 436.78,-117.35 437.75,-118.22"/>
<polygon fill="#000000" fill-opacity="0.200000" stroke="#000000" stroke-opacity="0.200000" points="436.91,-120.21 442.97,-122.12 439.42,-116.85 436.91,-120.21"/>
</g>
<!-- source/main.ts&#45;&gt;source/data.ts -->
<g id="edge19" class="edge">
<title>source/main.ts&#45;&gt;source/data.ts</title>
<path fill="none" stroke="#000000" stroke-width="2" stroke-opacity="0.200000" d="M70.01,-227.16C74.34,-227.6 78.8,-228.03 83,-228.43 235.84,-242.77 274.68,-240.37 427,-259.43 437.85,-260.79 449.7,-262.38 460.3,-263.85"/>
<polygon fill="#000000" fill-opacity="0.200000" stroke="#000000" stroke-width="2" stroke-opacity="0.200000" points="460.15,-265.95 466.38,-264.69 460.73,-261.79 460.15,-265.95"/>
</g>
<!-- source/main.ts&#45;&gt;source/util.ts -->
<g id="edge22" class="edge">
<title>source/main.ts&#45;&gt;source/util.ts</title>
<path fill="none" stroke="#000000" stroke-width="2" stroke-opacity="0.200000" d="M70.19,-218.31C115.51,-208.72 211.28,-192.88 290,-209.43 325.64,-216.92 337.71,-218.31 365,-242.43 378.06,-253.97 387.56,-271.77 393.14,-284.41"/>
<polygon fill="#000000" fill-opacity="0.200000" stroke="#000000" stroke-width="2" stroke-opacity="0.200000" points="391.3,-285.43 395.57,-290.14 395.16,-283.8 391.3,-285.43"/>
</g>
<!-- source/main.ts&#45;&gt;source/kernelType/hexString.ts -->
<g id="edge20" class="edge">
<title>source/main.ts&#45;&gt;source/kernelType/hexString.ts</title>
<path fill="none" stroke="#000000" stroke-width="2" stroke-opacity="0.200000" d="M45.97,-233.55C50.32,-252.25 62.06,-295.73 83,-326.43 105.7,-359.69 112.44,-372.89 150,-387.43 175.7,-397.37 185,-392.95 212,-387.43 219.46,-385.9 227.21,-383.08 234.12,-380.06"/>
<polygon fill="#000000" fill-opacity="0.200000" stroke="#000000" stroke-width="2" stroke-opacity="0.200000" points="235.11,-381.92 239.7,-377.51 233.37,-378.1 235.11,-381.92"/>
</g>
<!-- source/typeAlias.ts -->
<g id="node12" class="node">
<title>source/typeAlias.ts</title>
<g id="a_node12"><a xlink:href="source/typeAlias.ts" xlink:title="typeAlias.ts">
<path fill="#ddfeff" stroke="black" d="M283,-233.43C283,-233.43 232,-233.43 232,-233.43 229,-233.43 226,-230.43 226,-227.43 226,-227.43 226,-221.43 226,-221.43 226,-218.43 229,-215.43 232,-215.43 232,-215.43 283,-215.43 283,-215.43 286,-215.43 289,-218.43 289,-221.43 289,-221.43 289,-227.43 289,-227.43 289,-230.43 286,-233.43 283,-233.43"/>
<text text-anchor="middle" x="257.5" y="-222.23" font-family="Helvetica,sans-Serif" font-size="9.00">typeAlias.ts</text>
</a>
</g>
</g>
<!-- source/main.ts&#45;&gt;source/typeAlias.ts -->
<g id="edge21" class="edge">
<title>source/main.ts&#45;&gt;source/typeAlias.ts</title>
<path fill="none" stroke="#000000" stroke-width="2" stroke-opacity="0.200000" d="M70.06,-224.43C107.56,-224.43 176.92,-224.43 219.65,-224.43"/>
<polygon fill="#000000" fill-opacity="0.200000" stroke="#000000" stroke-width="2" stroke-opacity="0.200000" points="219.76,-226.53 225.76,-224.43 219.76,-222.33 219.76,-226.53"/>
</g>
<!-- source/variable.ts -->
<g id="node13" class="node">
<title>source/variable.ts</title>
<g id="a_node13"><a xlink:href="source/variable.ts" xlink:title="variable.ts">
<path fill="#ddfeff" stroke="black" d="M136,-320.43C136,-320.43 89,-320.43 89,-320.43 86,-320.43 83,-317.43 83,-314.43 83,-314.43 83,-308.43 83,-308.43 83,-305.43 86,-302.43 89,-302.43 89,-302.43 136,-302.43 136,-302.43 139,-302.43 142,-305.43 142,-308.43 142,-308.43 142,-314.43 142,-314.43 142,-317.43 139,-320.43 136,-320.43"/>
<text text-anchor="middle" x="112.5" y="-309.23" font-family="Helvetica,sans-Serif" font-size="9.00">variable.ts</text>
</a>
</g>
</g>
<!-- source/main.ts&#45;&gt;source/variable.ts -->
<g id="edge23" class="edge">
<title>source/main.ts&#45;&gt;source/variable.ts</title>
<path fill="none" stroke="#000000" stroke-width="2" stroke-opacity="0.200000" d="M51.22,-233.74C63,-248.91 86.41,-279.09 100.33,-297.04"/>
<polygon fill="#000000" fill-opacity="0.200000" stroke="#000000" stroke-width="2" stroke-opacity="0.200000" points="98.99,-298.73 104.33,-302.19 102.31,-296.16 98.99,-298.73"/>
</g>
<!-- source/typeAlias.ts&#45;&gt;node_modules/js&#45;ts&#45;code&#45;generator -->
<g id="edge28" class="edge">
<title>source/typeAlias.ts&#45;&gt;node_modules/js&#45;ts&#45;code&#45;generator</title>
<path fill="none" stroke="#000000" stroke-opacity="0.200000" d="M263.82,-215.12C271.09,-203.27 285.27,-183.07 303,-172.43 314.62,-165.46 386.41,-150.67 438.19,-140.64"/>
<polygon fill="#000000" fill-opacity="0.200000" stroke="#000000" stroke-opacity="0.200000" points="438.59,-142.7 444.09,-139.5 437.8,-138.58 438.59,-142.7"/>
</g>
<!-- source/typeAlias.ts&#45;&gt;source/kernelType/codec.ts -->
<g id="edge26" class="edge">
<title>source/typeAlias.ts&#45;&gt;source/kernelType/codec.ts</title>
<path fill="none" stroke="#000000" stroke-width="2" stroke-opacity="0.200000" d="M264.72,-233.6C275.78,-249.83 298.19,-282.32 303,-286.43 303.11,-286.52 303.21,-286.61 303.32,-286.7"/>
<polygon fill="#000000" fill-opacity="0.200000" stroke="#000000" stroke-width="2" stroke-opacity="0.200000" points="302.41,-288.63 308.52,-290.41 304.86,-285.22 302.41,-288.63"/>
</g>
<!-- source/typeAlias.ts&#45;&gt;source/util.ts -->
<g id="edge27" class="edge">
<title>source/typeAlias.ts&#45;&gt;source/util.ts</title>
<path fill="none" stroke="#000000" stroke-width="2" stroke-opacity="0.200000" d="M279.36,-233.56C301.16,-243.35 336.15,-259.74 365,-276.43 370.46,-279.59 376.21,-283.31 381.39,-286.83"/>
<polygon fill="#000000" fill-opacity="0.200000" stroke="#000000" stroke-width="2" stroke-opacity="0.200000" points="380.23,-288.58 386.36,-290.25 382.61,-285.12 380.23,-288.58"/>
</g>
<!-- source/variable.ts&#45;&gt;node_modules/js&#45;ts&#45;code&#45;generator -->
<g id="edge39" class="edge">
<title>source/variable.ts&#45;&gt;node_modules/js&#45;ts&#45;code&#45;generator</title>
<path fill="none" stroke="#000000" stroke-opacity="0.200000" d="M114.1,-302.21C117.65,-256.07 139.9,-52.43 256.5,-52.43 256.5,-52.43 256.5,-52.43 331,-52.43 374.77,-52.43 396.56,-42.98 427,-74.43 439.91,-87.77 422.29,-101.9 435,-115.43 435.87,-116.36 436.8,-117.23 437.77,-118.06"/>
<polygon fill="#000000" fill-opacity="0.200000" stroke="#000000" stroke-opacity="0.200000" points="436.83,-119.97 442.93,-121.76 439.27,-116.56 436.83,-119.97"/>
</g>
<!-- source/variable.ts&#45;&gt;source/data.ts -->
<g id="edge31" class="edge">
<title>source/variable.ts&#45;&gt;source/data.ts</title>
<path fill="none" stroke="#000000" stroke-width="2" stroke-opacity="0.200000" d="M118.24,-302.35C124.13,-292.16 135.24,-276.18 150,-269.43 204.56,-244.46 385.97,-258.24 460.31,-265.19"/>
<polygon fill="#000000" fill-opacity="0.200000" stroke="#000000" stroke-width="2" stroke-opacity="0.200000" points="460.15,-267.28 466.32,-265.76 460.54,-263.1 460.15,-267.28"/>
</g>
<!-- source/variable.ts&#45;&gt;source/kernelType/binary.ts -->
<g id="edge32" class="edge">
<title>source/variable.ts&#45;&gt;source/kernelType/binary.ts</title>
<path fill="none" stroke="#000000" stroke-width="2" stroke-opacity="0.200000" d="M142.18,-305.33C145.25,-304.67 148.4,-304 151.52,-303.34"/>
<polygon fill="#000000" fill-opacity="0.200000" stroke="#000000" stroke-width="2" stroke-opacity="0.200000" points="152.42,-305.3 157.85,-301.99 151.54,-301.19 152.42,-305.3"/>
</g>
<!-- source/variable.ts&#45;&gt;source/kernelType/codec.ts -->
<g id="edge33" class="edge">
<title>source/variable.ts&#45;&gt;source/kernelType/codec.ts</title>
<path fill="none" stroke="#000000" stroke-width="2" stroke-opacity="0.200000" d="M121.13,-302.39C127.88,-295.16 138.42,-285.58 150,-281.43 199.75,-263.61 261.94,-277.21 298.39,-288.48"/>
<polygon fill="#000000" fill-opacity="0.200000" stroke="#000000" stroke-width="2" stroke-opacity="0.200000" points="298.09,-290.59 304.44,-290.41 299.36,-286.59 298.09,-290.59"/>
</g>
<!-- source/variable.ts&#45;&gt;source/kernelType/int32.ts -->
<g id="edge35" class="edge">
<title>source/variable.ts&#45;&gt;source/kernelType/int32.ts</title>
<path fill="none" stroke="#000000" stroke-width="2" stroke-opacity="0.200000" d="M116.04,-320.84C120.37,-334.82 130.66,-360.55 150,-371.43 174.02,-384.93 187.47,-383.97 212,-371.43 220.79,-366.94 218.45,-360.81 225,-353.43 229.84,-347.98 235.59,-342.45 240.84,-337.71"/>
<polygon fill="#000000" fill-opacity="0.200000" stroke="#000000" stroke-width="2" stroke-opacity="0.200000" points="242.39,-339.14 245.49,-333.59 239.6,-336 242.39,-339.14"/>
</g>
<!-- source/variable.ts&#45;&gt;source/util.ts -->
<g id="edge38" class="edge">
<title>source/variable.ts&#45;&gt;source/util.ts</title>
<path fill="none" stroke="#000000" stroke-width="2" stroke-opacity="0.200000" d="M113.81,-320.5C115.04,-340.16 121.02,-386.52 150,-406.43 228.76,-460.54 287.88,-462.85 365,-406.43 394.05,-385.18 398.88,-338.92 399.32,-314.78"/>
<polygon fill="#000000" fill-opacity="0.200000" stroke="#000000" stroke-width="2" stroke-opacity="0.200000" points="401.42,-314.61 399.34,-308.6 397.22,-314.59 401.42,-314.61"/>
</g>
<!-- source/variable.ts&#45;&gt;source/kernelType/hexString.ts -->
<g id="edge34" class="edge">
<title>source/variable.ts&#45;&gt;source/kernelType/hexString.ts</title>
<path fill="none" stroke="#000000" stroke-width="2" stroke-opacity="0.200000" d="M115.28,-320.54C118.83,-335.89 128.38,-366.5 150,-379.43 174.16,-393.88 207.01,-387.38 229.81,-379.66"/>
<polygon fill="#000000" fill-opacity="0.200000" stroke="#000000" stroke-width="2" stroke-opacity="0.200000" points="230.72,-381.57 235.67,-377.58 229.32,-377.61 230.72,-381.57"/>
</g>
<!-- source/variable.ts&#45;&gt;source/kernelType/list.ts -->
<g id="edge36" class="edge">
<title>source/variable.ts&#45;&gt;source/kernelType/list.ts</title>
<path fill="none" stroke="#000000" stroke-width="2" stroke-opacity="0.200000" d="M123.17,-320.62C130.22,-327 140.22,-335.41 150,-341.43 151.87,-342.58 153.84,-343.69 155.85,-344.75"/>
<polygon fill="#000000" fill-opacity="0.200000" stroke="#000000" stroke-width="2" stroke-opacity="0.200000" points="154.94,-346.64 161.25,-347.42 156.81,-342.87 154.94,-346.64"/>
</g>
<!-- source/variable.ts&#45;&gt;source/kernelType/string.ts -->
<g id="edge37" class="edge">
<title>source/variable.ts&#45;&gt;source/kernelType/string.ts</title>
<path fill="none" stroke="#000000" stroke-width="2" stroke-opacity="0.200000" d="M142.18,-317.53C145.25,-318.18 148.4,-318.85 151.52,-319.52"/>
<polygon fill="#000000" fill-opacity="0.200000" stroke="#000000" stroke-width="2" stroke-opacity="0.200000" points="151.54,-321.67 157.85,-320.86 152.42,-317.56 151.54,-321.67"/>
</g>
</g>
</svg>
