<?xml version="1.0" encoding="UTF-8" standalone="no"?>
<!DOCTYPE svg PUBLIC "-//W3C//DTD SVG 1.1//EN"
 "http://www.w3.org/Graphics/SVG/1.1/DTD/svg11.dtd">
<!-- Generated by graphviz version 2.46.0 (20210118.1747)
 -->
<!-- Title: dependency&#45;cruiser output Pages: 1 -->
<svg width="490pt" height="435pt"
 viewBox="0.00 0.00 490.00 434.52" xmlns="http://www.w3.org/2000/svg" xmlns:xlink="http://www.w3.org/1999/xlink">
<g id="graph0" class="graph" transform="scale(1 1) rotate(0) translate(4 430.52)">
<title>dependency&#45;cruiser output</title>
<polygon fill="white" stroke="transparent" points="-4,4 -4,-430.52 486,-430.52 486,4 -4,4"/>
<g id="clust1" class="cluster">
<title>cluster_kernelType</title>
<path fill="#ffffff" stroke="black" stroke-width="2" d="M146,-42.21C146,-42.21 337,-42.21 337,-42.21 343,-42.21 349,-48.21 349,-54.21 349,-54.21 349,-154.21 349,-154.21 349,-160.21 343,-166.21 337,-166.21 337,-166.21 146,-166.21 146,-166.21 140,-166.21 134,-160.21 134,-154.21 134,-154.21 134,-54.21 134,-54.21 134,-48.21 140,-42.21 146,-42.21"/>
<text text-anchor="middle" x="241.5" y="-155.01" font-family="Helvetica,sans-Serif" font-weight="bold" font-size="9.00">kernelType</text>
</g>
<g id="clust2" class="cluster">
<title>cluster_node_modules</title>
<path fill="#ffffff" stroke="black" stroke-width="2" d="M369,-114.21C369,-114.21 462,-114.21 462,-114.21 468,-114.21 474,-120.21 474,-126.21 474,-126.21 474,-184.21 474,-184.21 474,-190.21 468,-196.21 462,-196.21 462,-196.21 369,-196.21 369,-196.21 363,-196.21 357,-190.21 357,-184.21 357,-184.21 357,-126.21 357,-126.21 357,-120.21 363,-114.21 369,-114.21"/>
<text text-anchor="middle" x="415.5" y="-185.01" font-family="Helvetica,sans-Serif" font-weight="bold" font-size="9.00">node_modules</text>
</g>
<!-- data.ts -->
<g id="node1" class="node">
<title>data.ts</title>
<g id="a_node1"><a xlink:href="data.ts" xlink:title="data.ts">
<path fill="#ddfeff" stroke="black" d="M436.5,-380.21C436.5,-380.21 394.5,-380.21 394.5,-380.21 391.5,-380.21 388.5,-377.21 388.5,-374.21 388.5,-374.21 388.5,-368.21 388.5,-368.21 388.5,-365.21 391.5,-362.21 394.5,-362.21 394.5,-362.21 436.5,-362.21 436.5,-362.21 439.5,-362.21 442.5,-365.21 442.5,-368.21 442.5,-368.21 442.5,-374.21 442.5,-374.21 442.5,-377.21 439.5,-380.21 436.5,-380.21"/>
<text text-anchor="middle" x="415.5" y="-369.01" font-family="Helvetica,sans-Serif" font-size="9.00">data.ts</text>
</a>
</g>
</g>
<!-- kernelType/binary.ts -->
<g id="node2" class="node">
<title>kernelType/binary.ts</title>
<g id="a_node2"><a xlink:href="kernelType/binary.ts" xlink:title="binary.ts">
<path fill="#ddfeff" stroke="black" d="M190,-80.21C190,-80.21 148,-80.21 148,-80.21 145,-80.21 142,-77.21 142,-74.21 142,-74.21 142,-68.21 142,-68.21 142,-65.21 145,-62.21 148,-62.21 148,-62.21 190,-62.21 190,-62.21 193,-62.21 196,-65.21 196,-68.21 196,-68.21 196,-74.21 196,-74.21 196,-77.21 193,-80.21 190,-80.21"/>
<text text-anchor="middle" x="169" y="-69.01" font-family="Helvetica,sans-Serif" font-size="9.00">binary.ts</text>
</a>
</g>
</g>
<!-- kernelType/codec.ts -->
<g id="node3" class="node">
<title>kernelType/codec.ts</title>
<g id="a_node3"><a xlink:href="kernelType/codec.ts" xlink:title="codec.ts">
<path fill="#ddfeff" stroke="black" d="M335,-140.21C335,-140.21 293,-140.21 293,-140.21 290,-140.21 287,-137.21 287,-134.21 287,-134.21 287,-128.21 287,-128.21 287,-125.21 290,-122.21 293,-122.21 293,-122.21 335,-122.21 335,-122.21 338,-122.21 341,-125.21 341,-128.21 341,-128.21 341,-134.21 341,-134.21 341,-137.21 338,-140.21 335,-140.21"/>
<text text-anchor="middle" x="314" y="-129.01" font-family="Helvetica,sans-Serif" font-size="9.00">codec.ts</text>
</a>
</g>
</g>
<!-- kernelType/binary.ts&#45;&gt;kernelType/codec.ts -->
<g id="edge1" class="edge">
<title>kernelType/binary.ts&#45;&gt;kernelType/codec.ts</title>
<path fill="none" stroke="#000000" stroke-width="2" stroke-opacity="0.200000" d="M196.45,-74.77C222.7,-78.62 260.85,-85.15 274,-92.21 285.18,-98.2 295.24,-108.44 302.33,-116.92"/>
<polygon fill="#000000" fill-opacity="0.200000" stroke="#000000" stroke-width="2" stroke-opacity="0.200000" points="300.96,-118.56 306.36,-121.92 304.23,-115.93 300.96,-118.56"/>
</g>
<!-- kernelType/int32.ts -->
<g id="node4" class="node">
<title>kernelType/int32.ts</title>
<g id="a_node4"><a xlink:href="kernelType/int32.ts" xlink:title="int32.ts">
<path fill="#ddfeff" stroke="black" d="M262.5,-126.21C262.5,-126.21 220.5,-126.21 220.5,-126.21 217.5,-126.21 214.5,-123.21 214.5,-120.21 214.5,-120.21 214.5,-114.21 214.5,-114.21 214.5,-111.21 217.5,-108.21 220.5,-108.21 220.5,-108.21 262.5,-108.21 262.5,-108.21 265.5,-108.21 268.5,-111.21 268.5,-114.21 268.5,-114.21 268.5,-120.21 268.5,-120.21 268.5,-123.21 265.5,-126.21 262.5,-126.21"/>
<text text-anchor="middle" x="241.5" y="-115.01" font-family="Helvetica,sans-Serif" font-size="9.00">int32.ts</text>
</a>
</g>
</g>
<!-- kernelType/binary.ts&#45;&gt;kernelType/int32.ts -->
<g id="edge2" class="edge">
<title>kernelType/binary.ts&#45;&gt;kernelType/int32.ts</title>
<path fill="none" stroke="#000000" stroke-width="2" stroke-opacity="0.200000" d="M186.35,-80.36C189.58,-82.24 192.92,-84.25 196,-86.21 204.91,-91.87 214.55,-98.51 222.58,-104.2"/>
<polygon fill="#000000" fill-opacity="0.200000" stroke="#000000" stroke-width="2" stroke-opacity="0.200000" points="221.74,-106.18 227.84,-107.96 224.18,-102.76 221.74,-106.18"/>
</g>
<!-- node_modules/js&#45;ts&#45;code&#45;generator -->
<g id="node5" class="node">
<title>node_modules/js&#45;ts&#45;code&#45;generator</title>
<g id="a_node5"><a xlink:href="node_modules/js-ts-code-generator" xlink:title="js&#45;ts&#45;code&#45;generator">
<polygon fill="#c40b0a" fill-opacity="0.101961" stroke="black" points="466,-140.21 367,-140.21 365,-138.21 365,-122.21 464,-122.21 466,-124.21 466,-140.21"/>
<polyline fill="none" stroke="black" points="464,-138.21 365,-138.21 "/>
<polyline fill="none" stroke="black" points="464,-138.21 464,-122.21 "/>
<polyline fill="none" stroke="black" points="464,-138.21 466,-140.21 "/>
<text text-anchor="middle" x="415.5" y="-129.01" font-family="Helvetica,sans-Serif" font-size="9.00" fill="#c40b0a">js&#45;ts&#45;code&#45;generator</text>
</a>
</g>
</g>
<!-- kernelType/binary.ts&#45;&gt;node_modules/js&#45;ts&#45;code&#45;generator -->
<g id="edge3" class="edge">
<title>kernelType/binary.ts&#45;&gt;node_modules/js&#45;ts&#45;code&#45;generator</title>
<path fill="none" stroke="#000000" stroke-opacity="0.200000" d="M173.65,-62.17C179.2,-49.82 191.03,-28.19 209,-19.21 264.77,8.68 296.24,5.01 349,-28.21 381.95,-48.95 401.34,-92.97 409.66,-116.17"/>
<polygon fill="#000000" fill-opacity="0.200000" stroke="#000000" stroke-opacity="0.200000" points="407.78,-117.14 411.72,-122.13 411.75,-115.77 407.78,-117.14"/>
</g>
<!-- kernelType/codec.ts&#45;&gt;node_modules/js&#45;ts&#45;code&#45;generator -->
<g id="edge5" class="edge">
<title>kernelType/codec.ts&#45;&gt;node_modules/js&#45;ts&#45;code&#45;generator</title>
<path fill="none" stroke="#000000" stroke-opacity="0.200000" d="M341.14,-131.21C346.58,-131.21 352.52,-131.21 358.57,-131.21"/>
<polygon fill="#000000" fill-opacity="0.200000" stroke="#000000" stroke-opacity="0.200000" points="358.65,-133.31 364.65,-131.21 358.65,-129.11 358.65,-133.31"/>
</g>
<!-- util.ts -->
<g id="node6" class="node">
<title>util.ts</title>
<g id="a_node6"><a xlink:href="util.ts" xlink:title="util.ts">
<path fill="#ddfeff" stroke="black" d="M335,-220.21C335,-220.21 293,-220.21 293,-220.21 290,-220.21 287,-217.21 287,-214.21 287,-214.21 287,-208.21 287,-208.21 287,-205.21 290,-202.21 293,-202.21 293,-202.21 335,-202.21 335,-202.21 338,-202.21 341,-205.21 341,-208.21 341,-208.21 341,-214.21 341,-214.21 341,-217.21 338,-220.21 335,-220.21"/>
<text text-anchor="middle" x="314" y="-209.01" font-family="Helvetica,sans-Serif" font-size="9.00">util.ts</text>
</a>
</g>
</g>
<!-- kernelType/codec.ts&#45;&gt;util.ts -->
<g id="edge4" class="edge">
<title>kernelType/codec.ts&#45;&gt;util.ts</title>
<path fill="none" stroke="#000000" stroke-width="2" stroke-opacity="0.200000" d="M314,-140.27C314,-158.77 314,-177.28 314,-195.79"/>
<polygon fill="#000000" fill-opacity="0.200000" stroke="#000000" stroke-width="2" stroke-opacity="0.200000" points="311.9,-196.06 314,-202.06 316.1,-196.06 311.9,-196.06"/>
</g>
<!-- kernelType/int32.ts&#45;&gt;kernelType/codec.ts -->
<g id="edge9" class="edge">
<title>kernelType/int32.ts&#45;&gt;kernelType/codec.ts</title>
<path fill="none" stroke="#000000" stroke-width="2" stroke-opacity="0.200000" d="M268.75,-122.42C272.75,-123.21 276.91,-124.04 281.02,-124.85"/>
<polygon fill="#000000" fill-opacity="0.200000" stroke="#000000" stroke-width="2" stroke-opacity="0.200000" points="280.67,-126.93 286.96,-126.03 281.49,-122.81 280.67,-126.93"/>
</g>
<!-- kernelType/int32.ts&#45;&gt;node_modules/js&#45;ts&#45;code&#45;generator -->
<g id="edge10" class="edge">
<title>kernelType/int32.ts&#45;&gt;node_modules/js&#45;ts&#45;code&#45;generator</title>
<path fill="none" stroke="#000000" stroke-opacity="0.200000" d="M268.85,-116.52C274.82,-116.39 281.13,-116.27 287,-116.21 314.55,-115.9 321.62,-113.11 349,-116.21 357.76,-117.2 367.05,-118.91 375.81,-120.83"/>
<polygon fill="#000000" fill-opacity="0.200000" stroke="#000000" stroke-opacity="0.200000" points="375.45,-122.9 381.76,-122.19 376.38,-118.81 375.45,-122.9"/>
</g>
<!-- kernelType/int32.ts&#45;&gt;util.ts -->
<g id="edge8" class="edge">
<title>kernelType/int32.ts&#45;&gt;util.ts</title>
<path fill="none" stroke="#000000" stroke-width="2" stroke-opacity="0.200000" d="M252.44,-126.23C258.94,-132.38 267.42,-140.89 274,-149.21 275.72,-151.37 293.12,-179.24 304.09,-196.86"/>
<polygon fill="#000000" fill-opacity="0.200000" stroke="#000000" stroke-width="2" stroke-opacity="0.200000" points="302.31,-197.98 307.26,-201.97 305.88,-195.76 302.31,-197.98"/>
</g>
<!-- util.ts&#45;&gt;data.ts -->
<g id="edge29" class="edge">
<title>util.ts&#45;&gt;data.ts</title>
<path fill="none" stroke="#000000" stroke-width="2" stroke-opacity="0.200000" d="M320.63,-220.27C337.11,-246.76 385.32,-324.28 405.47,-356.69"/>
<polygon fill="#000000" fill-opacity="0.200000" stroke="#000000" stroke-width="2" stroke-opacity="0.200000" points="403.73,-357.86 408.68,-361.85 407.29,-355.64 403.73,-357.86"/>
</g>
<!-- util.ts&#45;&gt;node_modules/js&#45;ts&#45;code&#45;generator -->
<g id="edge30" class="edge">
<title>util.ts&#45;&gt;node_modules/js&#45;ts&#45;code&#45;generator</title>
<path fill="none" stroke="#000000" stroke-opacity="0.200000" d="M324.14,-201.89C331.66,-193.81 342.16,-181.5 349,-169.21 354.26,-159.75 349.05,-153.55 357,-146.21 358.02,-145.27 359.08,-144.39 360.19,-143.56"/>
<polygon fill="#000000" fill-opacity="0.200000" stroke="#000000" stroke-opacity="0.200000" points="361.4,-145.28 365.31,-140.26 359.13,-141.75 361.4,-145.28"/>
</g>
<!-- kernelType/hexString.ts -->
<g id="node7" class="node">
<title>kernelType/hexString.ts</title>
<g id="a_node7"><a xlink:href="kernelType/hexString.ts" xlink:title="hexString.ts">
<path fill="#ddfeff" stroke="black" d="M268,-68.21C268,-68.21 215,-68.21 215,-68.21 212,-68.21 209,-65.21 209,-62.21 209,-62.21 209,-56.21 209,-56.21 209,-53.21 212,-50.21 215,-50.21 215,-50.21 268,-50.21 268,-50.21 271,-50.21 274,-53.21 274,-56.21 274,-56.21 274,-62.21 274,-62.21 274,-65.21 271,-68.21 268,-68.21"/>
<text text-anchor="middle" x="241.5" y="-57.01" font-family="Helvetica,sans-Serif" font-size="9.00">hexString.ts</text>
</a>
</g>
</g>
<!-- kernelType/hexString.ts&#45;&gt;kernelType/codec.ts -->
<g id="edge6" class="edge">
<title>kernelType/hexString.ts&#45;&gt;kernelType/codec.ts</title>
<path fill="none" stroke="#000000" stroke-width="2" stroke-opacity="0.200000" d="M261.38,-68.25C265.77,-70.82 270.25,-73.84 274,-77.21 286.71,-88.63 297.75,-104.87 304.8,-116.55"/>
<polygon fill="#000000" fill-opacity="0.200000" stroke="#000000" stroke-width="2" stroke-opacity="0.200000" points="303.08,-117.77 307.94,-121.87 306.7,-115.64 303.08,-117.77"/>
</g>
<!-- kernelType/hexString.ts&#45;&gt;node_modules/js&#45;ts&#45;code&#45;generator -->
<g id="edge7" class="edge">
<title>kernelType/hexString.ts&#45;&gt;node_modules/js&#45;ts&#45;code&#45;generator</title>
<path fill="none" stroke="#000000" stroke-opacity="0.200000" d="M264.28,-68.32C295.56,-81.42 353.16,-105.53 387.23,-119.79"/>
<polygon fill="#000000" fill-opacity="0.200000" stroke="#000000" stroke-opacity="0.200000" points="386.55,-121.78 392.89,-122.16 388.17,-117.91 386.55,-121.78"/>
</g>
<!-- kernelType/list.ts -->
<g id="node8" class="node">
<title>kernelType/list.ts</title>
<g id="a_node8"><a xlink:href="kernelType/list.ts" xlink:title="list.ts">
<path fill="#ddfeff" stroke="black" d="M190,-110.21C190,-110.21 148,-110.21 148,-110.21 145,-110.21 142,-107.21 142,-104.21 142,-104.21 142,-98.21 142,-98.21 142,-95.21 145,-92.21 148,-92.21 148,-92.21 190,-92.21 190,-92.21 193,-92.21 196,-95.21 196,-98.21 196,-98.21 196,-104.21 196,-104.21 196,-107.21 193,-110.21 190,-110.21"/>
<text text-anchor="middle" x="169" y="-99.01" font-family="Helvetica,sans-Serif" font-size="9.00">list.ts</text>
</a>
</g>
</g>
<!-- kernelType/list.ts&#45;&gt;kernelType/codec.ts -->
<g id="edge12" class="edge">
<title>kernelType/list.ts&#45;&gt;kernelType/codec.ts</title>
<path fill="none" stroke="#000000" stroke-width="2" stroke-opacity="0.200000" d="M196.39,-97.04C217.87,-94.68 248.67,-93.69 274,-102.21 283.62,-105.44 292.8,-112.04 299.84,-118.12"/>
<polygon fill="#000000" fill-opacity="0.200000" stroke="#000000" stroke-width="2" stroke-opacity="0.200000" points="298.5,-119.73 304.35,-122.2 301.31,-116.62 298.5,-119.73"/>
</g>
<!-- kernelType/list.ts&#45;&gt;kernelType/int32.ts -->
<g id="edge13" class="edge">
<title>kernelType/list.ts&#45;&gt;kernelType/int32.ts</title>
<path fill="none" stroke="#000000" stroke-width="2" stroke-opacity="0.200000" d="M196.25,-107.16C200.25,-108.07 204.41,-109.02 208.52,-109.95"/>
<polygon fill="#000000" fill-opacity="0.200000" stroke="#000000" stroke-width="2" stroke-opacity="0.200000" points="208.15,-112.02 214.46,-111.3 209.07,-107.92 208.15,-112.02"/>
</g>
<!-- kernelType/list.ts&#45;&gt;node_modules/js&#45;ts&#45;code&#45;generator -->
<g id="edge14" class="edge">
<title>kernelType/list.ts&#45;&gt;node_modules/js&#45;ts&#45;code&#45;generator</title>
<path fill="none" stroke="#000000" stroke-opacity="0.200000" d="M189.88,-92.14C192.19,-90.44 194.32,-88.46 196,-86.21 211,-66.06 189.3,-46.79 209,-31.21 231.66,-13.28 245.2,-28.92 274,-31.21 307.65,-33.88 320.13,-25.71 349,-43.21 378.06,-60.81 398.42,-96.61 408.1,-116.7"/>
<polygon fill="#000000" fill-opacity="0.200000" stroke="#000000" stroke-opacity="0.200000" points="406.21,-117.61 410.65,-122.16 410.01,-115.83 406.21,-117.61"/>
</g>
<!-- kernelType/list.ts&#45;&gt;util.ts -->
<g id="edge11" class="edge">
<title>kernelType/list.ts&#45;&gt;util.ts</title>
<path fill="none" stroke="#000000" stroke-width="2" stroke-opacity="0.200000" d="M187.65,-110.21C190.57,-112.02 193.46,-114.04 196,-116.21 202.97,-122.15 202.04,-126.24 209,-132.21 234.4,-153.99 247.76,-149.43 274,-170.21 284.08,-178.18 294.04,-188.72 301.38,-197.11"/>
<polygon fill="#000000" fill-opacity="0.200000" stroke="#000000" stroke-width="2" stroke-opacity="0.200000" points="300.08,-198.83 305.58,-202.02 303.27,-196.09 300.08,-198.83"/>
</g>
<!-- kernelType/string.ts -->
<g id="node9" class="node">
<title>kernelType/string.ts</title>
<g id="a_node9"><a xlink:href="kernelType/string.ts" xlink:title="string.ts">
<path fill="#ddfeff" stroke="black" d="M190,-140.21C190,-140.21 148,-140.21 148,-140.21 145,-140.21 142,-137.21 142,-134.21 142,-134.21 142,-128.21 142,-128.21 142,-125.21 145,-122.21 148,-122.21 148,-122.21 190,-122.21 190,-122.21 193,-122.21 196,-125.21 196,-128.21 196,-128.21 196,-134.21 196,-134.21 196,-137.21 193,-140.21 190,-140.21"/>
<text text-anchor="middle" x="169" y="-129.01" font-family="Helvetica,sans-Serif" font-size="9.00">string.ts</text>
</a>
</g>
</g>
<!-- kernelType/string.ts&#45;&gt;kernelType/codec.ts -->
<g id="edge16" class="edge">
<title>kernelType/string.ts&#45;&gt;kernelType/codec.ts</title>
<path fill="none" stroke="#000000" stroke-width="2" stroke-opacity="0.200000" d="M196.01,-131.97C200.35,-132.07 204.8,-132.15 209,-132.21 237.89,-132.58 245.11,-132.58 274,-132.21 276.23,-132.18 278.53,-132.14 280.85,-132.1"/>
<polygon fill="#000000" fill-opacity="0.200000" stroke="#000000" stroke-width="2" stroke-opacity="0.200000" points="281.03,-134.19 286.99,-131.97 280.95,-129.99 281.03,-134.19"/>
</g>
<!-- kernelType/string.ts&#45;&gt;kernelType/int32.ts -->
<g id="edge17" class="edge">
<title>kernelType/string.ts&#45;&gt;kernelType/int32.ts</title>
<path fill="none" stroke="#000000" stroke-width="2" stroke-opacity="0.200000" d="M196.25,-125.99C200.25,-125.2 204.41,-124.37 208.52,-123.56"/>
<polygon fill="#000000" fill-opacity="0.200000" stroke="#000000" stroke-width="2" stroke-opacity="0.200000" points="208.99,-125.61 214.46,-122.38 208.17,-121.49 208.99,-125.61"/>
</g>
<!-- kernelType/string.ts&#45;&gt;node_modules/js&#45;ts&#45;code&#45;generator -->
<g id="edge18" class="edge">
<title>kernelType/string.ts&#45;&gt;node_modules/js&#45;ts&#45;code&#45;generator</title>
<path fill="none" stroke="#000000" stroke-opacity="0.200000" d="M190.25,-122.03C192.44,-120.36 194.44,-118.42 196,-116.21 214.71,-89.61 184.05,-65.06 209,-44.21 231.17,-25.68 245.66,-38.58 274,-44.21 309.38,-51.23 318.24,-56.36 349,-75.21 368.77,-87.32 388.61,-105.29 401.18,-117.58"/>
<polygon fill="#000000" fill-opacity="0.200000" stroke="#000000" stroke-opacity="0.200000" points="399.74,-119.1 405.48,-121.84 402.69,-116.12 399.74,-119.1"/>
</g>
<!-- kernelType/string.ts&#45;&gt;util.ts -->
<g id="edge15" class="edge">
<title>kernelType/string.ts&#45;&gt;util.ts</title>
<path fill="none" stroke="#000000" stroke-width="2" stroke-opacity="0.200000" d="M177.55,-140.38C184.87,-148.8 196.65,-161.15 209,-169.21 231.36,-183.79 259.6,-194.8 281.01,-201.88"/>
<polygon fill="#000000" fill-opacity="0.200000" stroke="#000000" stroke-width="2" stroke-opacity="0.200000" points="280.5,-203.93 286.86,-203.78 281.79,-199.93 280.5,-203.93"/>
</g>
<!-- main.ts -->
<g id="node10" class="node">
<title>main.ts</title>
<g id="a_node10"><a xlink:href="main.ts" xlink:title="main.ts">
<path fill="#ddfeff" stroke="black" d="M48,-302.21C48,-302.21 6,-302.21 6,-302.21 3,-302.21 0,-299.21 0,-296.21 0,-296.21 0,-290.21 0,-290.21 0,-287.21 3,-284.21 6,-284.21 6,-284.21 48,-284.21 48,-284.21 51,-284.21 54,-287.21 54,-290.21 54,-290.21 54,-296.21 54,-296.21 54,-299.21 51,-302.21 48,-302.21"/>
<text text-anchor="middle" x="27" y="-291.01" font-family="Helvetica,sans-Serif" font-size="9.00">main.ts</text>
</a>
</g>
</g>
<!-- main.ts&#45;&gt;data.ts -->
<g id="edge19" class="edge">
<title>main.ts&#45;&gt;data.ts</title>
<path fill="none" stroke="#000000" stroke-width="2" stroke-opacity="0.200000" d="M28.14,-302.33C29.02,-324.21 34.5,-379.88 67,-407.21 101.79,-436.45 122.55,-423.21 168,-423.21 168,-423.21 168,-423.21 242.5,-423.21 290.36,-423.21 303.65,-422.53 349,-407.21 365.78,-401.54 383.29,-391.68 395.98,-383.71"/>
<polygon fill="#000000" fill-opacity="0.200000" stroke="#000000" stroke-width="2" stroke-opacity="0.200000" points="397.18,-385.43 401.1,-380.43 394.92,-381.89 397.18,-385.43"/>
</g>
<!-- main.ts&#45;&gt;node_modules/js&#45;ts&#45;code&#45;generator -->
<g id="edge25" class="edge">
<title>main.ts&#45;&gt;node_modules/js&#45;ts&#45;code&#45;generator</title>
<path fill="none" stroke="#000000" stroke-opacity="0.200000" d="M41.63,-302.4C48.92,-307.02 58.19,-312.42 67,-316.21 109.9,-334.66 121.3,-345.21 168,-345.21 168,-345.21 168,-345.21 242.5,-345.21 299.14,-345.21 320.58,-324.2 349,-275.21 363.41,-250.36 338.74,-168.38 357,-146.21 357.84,-145.19 358.73,-144.24 359.68,-143.35"/>
<polygon fill="#000000" fill-opacity="0.200000" stroke="#000000" stroke-opacity="0.200000" points="361.35,-144.71 364.8,-139.37 358.77,-141.39 361.35,-144.71"/>
</g>
<!-- main.ts&#45;&gt;util.ts -->
<g id="edge22" class="edge">
<title>main.ts&#45;&gt;util.ts</title>
<path fill="none" stroke="#000000" stroke-width="2" stroke-opacity="0.200000" d="M54.22,-300.12C102.59,-311.23 207.02,-327.34 274,-280.21 286.22,-271.61 279.86,-262.33 287,-249.21 291.51,-240.93 297.38,-232.21 302.4,-225.22"/>
<polygon fill="#000000" fill-opacity="0.200000" stroke="#000000" stroke-width="2" stroke-opacity="0.200000" points="304.2,-226.32 306.04,-220.24 300.81,-223.84 304.2,-226.32"/>
</g>
<!-- main.ts&#45;&gt;kernelType/hexString.ts -->
<g id="edge20" class="edge">
<title>main.ts&#45;&gt;kernelType/hexString.ts</title>
<path fill="none" stroke="#000000" stroke-width="2" stroke-opacity="0.200000" d="M28.62,-284.01C31.68,-246.9 48.7,-107.65 134,-56.21 154.99,-43.55 182.8,-44.8 204.73,-48.95"/>
<polygon fill="#000000" fill-opacity="0.200000" stroke="#000000" stroke-width="2" stroke-opacity="0.200000" points="204.45,-51.04 210.75,-50.19 205.3,-46.92 204.45,-51.04"/>
</g>
<!-- typeAlias.ts -->
<g id="node11" class="node">
<title>typeAlias.ts</title>
<g id="a_node11"><a xlink:href="typeAlias.ts" xlink:title="typeAlias.ts">
<path fill="#ddfeff" stroke="black" d="M267,-274.21C267,-274.21 216,-274.21 216,-274.21 213,-274.21 210,-271.21 210,-268.21 210,-268.21 210,-262.21 210,-262.21 210,-259.21 213,-256.21 216,-256.21 216,-256.21 267,-256.21 267,-256.21 270,-256.21 273,-259.21 273,-262.21 273,-262.21 273,-268.21 273,-268.21 273,-271.21 270,-274.21 267,-274.21"/>
<text text-anchor="middle" x="241.5" y="-263.01" font-family="Helvetica,sans-Serif" font-size="9.00">typeAlias.ts</text>
</a>
</g>
</g>
<!-- main.ts&#45;&gt;typeAlias.ts -->
<g id="edge21" class="edge">
<title>main.ts&#45;&gt;typeAlias.ts</title>
<path fill="none" stroke="#000000" stroke-width="2" stroke-opacity="0.200000" d="M54.32,-285.9C58.54,-284.89 62.87,-283.94 67,-283.21 113.72,-274.84 168.27,-269.97 203.55,-267.45"/>
<polygon fill="#000000" fill-opacity="0.200000" stroke="#000000" stroke-width="2" stroke-opacity="0.200000" points="204.07,-269.52 209.91,-267.01 203.78,-265.33 204.07,-269.52"/>
</g>
<!-- variable.ts -->
<g id="node12" class="node">
<title>variable.ts</title>
<g id="a_node12"><a xlink:href="variable.ts" xlink:title="variable.ts">
<path fill="#ddfeff" stroke="black" d="M120,-207.21C120,-207.21 73,-207.21 73,-207.21 70,-207.21 67,-204.21 67,-201.21 67,-201.21 67,-195.21 67,-195.21 67,-192.21 70,-189.21 73,-189.21 73,-189.21 120,-189.21 120,-189.21 123,-189.21 126,-192.21 126,-195.21 126,-195.21 126,-201.21 126,-201.21 126,-204.21 123,-207.21 120,-207.21"/>
<text text-anchor="middle" x="96.5" y="-196.01" font-family="Helvetica,sans-Serif" font-size="9.00">variable.ts</text>
</a>
</g>
</g>
<!-- main.ts&#45;&gt;variable.ts -->
<g id="edge23" class="edge">
<title>main.ts&#45;&gt;variable.ts</title>
<path fill="none" stroke="#000000" stroke-width="2" stroke-opacity="0.200000" d="M34.47,-284.1C46.29,-267.47 71.42,-232.1 85.46,-212.33"/>
<polygon fill="#000000" fill-opacity="0.200000" stroke="#000000" stroke-width="2" stroke-opacity="0.200000" points="87.18,-213.53 88.95,-207.43 83.76,-211.1 87.18,-213.53"/>
</g>
<!-- node_modules/elm&#45;code&#45;generator -->
<g id="node13" class="node">
<title>node_modules/elm&#45;code&#45;generator</title>
<g id="a_node13"><a xlink:href="node_modules/elm-code-generator" xlink:title="elm&#45;code&#45;generator">
<polygon fill="#c40b0a" fill-opacity="0.101961" stroke="black" points="464.5,-170.21 368.5,-170.21 366.5,-168.21 366.5,-152.21 462.5,-152.21 464.5,-154.21 464.5,-170.21"/>
<polyline fill="none" stroke="black" points="462.5,-168.21 366.5,-168.21 "/>
<polyline fill="none" stroke="black" points="462.5,-168.21 462.5,-152.21 "/>
<polyline fill="none" stroke="black" points="462.5,-168.21 464.5,-170.21 "/>
<text text-anchor="middle" x="415.5" y="-159.01" font-family="Helvetica,sans-Serif" font-size="9.00" fill="#c40b0a">elm&#45;code&#45;generator</text>
</a>
</g>
</g>
<!-- main.ts&#45;&gt;node_modules/elm&#45;code&#45;generator -->
<g id="edge24" class="edge">
<title>main.ts&#45;&gt;node_modules/elm&#45;code&#45;generator</title>
<path fill="none" stroke="#000000" stroke-opacity="0.200000" d="M31.65,-302.45C37.34,-315.78 49.52,-340.43 67,-355.21 104.13,-386.59 119.38,-397.21 168,-397.21 168,-397.21 168,-397.21 242.5,-397.21 293.38,-397.21 313.93,-392.07 349,-355.21 398.59,-303.07 410.71,-212.11 413.61,-176.3"/>
<polygon fill="#000000" fill-opacity="0.200000" stroke="#000000" stroke-opacity="0.200000" points="415.71,-176.42 414.05,-170.28 411.52,-176.11 415.71,-176.42"/>
</g>
<!-- typeAlias.ts&#45;&gt;kernelType/codec.ts -->
<g id="edge26" class="edge">
<title>typeAlias.ts&#45;&gt;kernelType/codec.ts</title>
<path fill="none" stroke="#000000" stroke-width="2" stroke-opacity="0.200000" d="M247.35,-256C259.37,-233.14 290.65,-173.68 305.27,-145.9"/>
<polygon fill="#000000" fill-opacity="0.200000" stroke="#000000" stroke-width="2" stroke-opacity="0.200000" points="307.19,-146.77 308.12,-140.48 303.47,-144.81 307.19,-146.77"/>
</g>
<!-- typeAlias.ts&#45;&gt;node_modules/js&#45;ts&#45;code&#45;generator -->
<g id="edge28" class="edge">
<title>typeAlias.ts&#45;&gt;node_modules/js&#45;ts&#45;code&#45;generator</title>
<path fill="none" stroke="#000000" stroke-opacity="0.200000" d="M273.34,-262.61C297.89,-258.8 331.02,-249.39 349,-226.21 370.9,-197.97 333.77,-173.36 357,-146.21 357.86,-145.21 358.77,-144.27 359.73,-143.39"/>
<polygon fill="#000000" fill-opacity="0.200000" stroke="#000000" stroke-opacity="0.200000" points="361.4,-144.76 364.92,-139.47 358.86,-141.41 361.4,-144.76"/>
</g>
<!-- typeAlias.ts&#45;&gt;util.ts -->
<g id="edge27" class="edge">
<title>typeAlias.ts&#45;&gt;util.ts</title>
<path fill="none" stroke="#000000" stroke-width="2" stroke-opacity="0.200000" d="M259.94,-256.17C264.64,-253.49 269.63,-250.41 274,-247.21 283.06,-240.57 292.33,-232.09 299.56,-225.03"/>
<polygon fill="#000000" fill-opacity="0.200000" stroke="#000000" stroke-width="2" stroke-opacity="0.200000" points="301.44,-226.13 304.21,-220.41 298.48,-223.15 301.44,-226.13"/>
</g>
<!-- variable.ts&#45;&gt;data.ts -->
<g id="edge31" class="edge">
<title>variable.ts&#45;&gt;data.ts</title>
<path fill="none" stroke="#000000" stroke-width="2" stroke-opacity="0.200000" d="M100.73,-207.27C105.96,-220.95 117.42,-247.09 134,-264.21 189.06,-321.02 212.17,-329.52 287,-355.21 318.25,-365.94 356.03,-369.61 382.31,-370.79"/>
<polygon fill="#000000" fill-opacity="0.200000" stroke="#000000" stroke-width="2" stroke-opacity="0.200000" points="382.32,-372.89 388.4,-371.03 382.49,-368.7 382.32,-372.89"/>
</g>
<!-- variable.ts&#45;&gt;kernelType/binary.ts -->
<g id="edge32" class="edge">
<title>variable.ts&#45;&gt;kernelType/binary.ts</title>
<path fill="none" stroke="#000000" stroke-width="2" stroke-opacity="0.200000" d="M98.01,-189.14C99.65,-168.35 106.43,-116.69 134,-86.21 134.84,-85.27 135.76,-84.39 136.72,-83.57"/>
<polygon fill="#000000" fill-opacity="0.200000" stroke="#000000" stroke-width="2" stroke-opacity="0.200000" points="138.26,-85.05 141.93,-79.86 135.82,-81.63 138.26,-85.05"/>
</g>
<!-- variable.ts&#45;&gt;kernelType/codec.ts -->
<g id="edge33" class="edge">
<title>variable.ts&#45;&gt;kernelType/codec.ts</title>
<path fill="none" stroke="#000000" stroke-width="2" stroke-opacity="0.200000" d="M126.03,-198.76C145.98,-198.46 173.04,-196.66 196,-190.21 232.74,-179.88 271.58,-157.74 293.98,-143.72"/>
<polygon fill="#000000" fill-opacity="0.200000" stroke="#000000" stroke-width="2" stroke-opacity="0.200000" points="295.37,-145.32 299.31,-140.34 293.12,-141.78 295.37,-145.32"/>
</g>
<!-- variable.ts&#45;&gt;kernelType/int32.ts -->
<g id="edge35" class="edge">
<title>variable.ts&#45;&gt;kernelType/int32.ts</title>
<path fill="none" stroke="#000000" stroke-width="2" stroke-opacity="0.200000" d="M126.06,-194.26C146.77,-190.38 174.75,-182.96 196,-169.21 211.05,-159.46 223.82,-143.14 231.77,-131.38"/>
<polygon fill="#000000" fill-opacity="0.200000" stroke="#000000" stroke-width="2" stroke-opacity="0.200000" points="233.54,-132.5 235.07,-126.33 230.02,-130.2 233.54,-132.5"/>
</g>
<!-- variable.ts&#45;&gt;node_modules/js&#45;ts&#45;code&#45;generator -->
<g id="edge39" class="edge">
<title>variable.ts&#45;&gt;node_modules/js&#45;ts&#45;code&#45;generator</title>
<path fill="none" stroke="#000000" stroke-opacity="0.200000" d="M105.68,-207.38C112.76,-215.03 123.49,-225.97 134,-234.21 164.79,-258.31 171.37,-269.58 209,-280.21 236.8,-288.05 245.57,-285.34 274,-280.21 309.01,-273.88 327.63,-280.65 349,-252.21 363.19,-233.32 341.86,-164.34 357,-146.21 357.84,-145.2 358.74,-144.25 359.7,-143.36"/>
<polygon fill="#000000" fill-opacity="0.200000" stroke="#000000" stroke-opacity="0.200000" points="361.37,-144.73 364.84,-139.41 358.81,-141.4 361.37,-144.73"/>
</g>
<!-- variable.ts&#45;&gt;util.ts -->
<g id="edge38" class="edge">
<title>variable.ts&#45;&gt;util.ts</title>
<path fill="none" stroke="#000000" stroke-width="2" stroke-opacity="0.200000" d="M108.21,-207.24C115.09,-212.43 124.5,-218.46 134,-221.21 183.75,-235.57 244.44,-227.04 280.84,-219.31"/>
<polygon fill="#000000" fill-opacity="0.200000" stroke="#000000" stroke-width="2" stroke-opacity="0.200000" points="281.49,-221.31 286.9,-217.98 280.59,-217.21 281.49,-221.31"/>
</g>
<!-- variable.ts&#45;&gt;kernelType/hexString.ts -->
<g id="edge34" class="edge">
<title>variable.ts&#45;&gt;kernelType/hexString.ts</title>
<path fill="none" stroke="#000000" stroke-width="2" stroke-opacity="0.200000" d="M107.8,-189.02C114.82,-183.1 124.53,-175.53 134,-170.21 159.76,-155.73 175.98,-167.94 196,-146.21 209.82,-131.21 199.95,-120.48 209,-102.21 214.17,-91.77 221.87,-81.2 228.36,-73.15"/>
<polygon fill="#000000" fill-opacity="0.200000" stroke="#000000" stroke-width="2" stroke-opacity="0.200000" points="230.01,-74.45 232.22,-68.49 226.78,-71.77 230.01,-74.45"/>
</g>
<!-- variable.ts&#45;&gt;kernelType/list.ts -->
<g id="edge36" class="edge">
<title>variable.ts&#45;&gt;kernelType/list.ts</title>
<path fill="none" stroke="#000000" stroke-width="2" stroke-opacity="0.200000" d="M99.29,-189.09C102.98,-172.52 112.92,-137.22 134,-116.21 134.86,-115.35 135.77,-114.54 136.73,-113.78"/>
<polygon fill="#000000" fill-opacity="0.200000" stroke="#000000" stroke-width="2" stroke-opacity="0.200000" points="138.06,-115.41 141.82,-110.29 135.69,-111.94 138.06,-115.41"/>
</g>
<!-- variable.ts&#45;&gt;kernelType/string.ts -->
<g id="edge37" class="edge">
<title>variable.ts&#45;&gt;kernelType/string.ts</title>
<path fill="none" stroke="#000000" stroke-width="2" stroke-opacity="0.200000" d="M102.68,-188.93C108.98,-178.28 120.47,-160.8 134,-149.21 136.47,-147.09 139.24,-145.12 142.09,-143.33"/>
<polygon fill="#000000" fill-opacity="0.200000" stroke="#000000" stroke-width="2" stroke-opacity="0.200000" points="143.16,-145.13 147.28,-140.29 141.04,-141.51 143.16,-145.13"/>
</g>
</g>
</svg>
