<?xml version="1.0" encoding="UTF-8" standalone="no"?>
<!DOCTYPE svg PUBLIC "-//W3C//DTD SVG 1.1//EN"
 "http://www.w3.org/Graphics/SVG/1.1/DTD/svg11.dtd">
<!-- Generated by graphviz version 2.46.0 (20210118.1747)
 -->
<!-- Title: dependency&#45;cruiser output Pages: 1 -->
<svg width="490pt" height="599pt"
 viewBox="0.00 0.00 490.00 598.92" xmlns="http://www.w3.org/2000/svg" xmlns:xlink="http://www.w3.org/1999/xlink">
<g id="graph0" class="graph" transform="scale(1 1) rotate(0) translate(4 594.92)">
<title>dependency&#45;cruiser output</title>
<polygon fill="white" stroke="transparent" points="-4,4 -4,-594.92 486,-594.92 486,4 -4,4"/>
<g id="clust2" class="cluster">
<title>cluster_node_modules</title>
<path fill="#ffffff" stroke="black" stroke-width="2" d="M369,-251C369,-251 462,-251 462,-251 468,-251 474,-257 474,-263 474,-263 474,-321 474,-321 474,-327 468,-333 462,-333 462,-333 369,-333 369,-333 363,-333 357,-327 357,-321 357,-321 357,-263 357,-263 357,-257 363,-251 369,-251"/>
<text text-anchor="middle" x="415.5" y="-321.8" font-family="Helvetica,sans-Serif" font-weight="bold" font-size="9.00">node_modules</text>
</g>
<g id="clust1" class="cluster">
<title>cluster_kernelType</title>
<path fill="#ffffff" stroke="black" stroke-width="2" d="M146,-115C146,-115 337,-115 337,-115 343,-115 349,-121 349,-127 349,-127 349,-245 349,-245 349,-251 343,-257 337,-257 337,-257 146,-257 146,-257 140,-257 134,-251 134,-245 134,-245 134,-127 134,-127 134,-121 140,-115 146,-115"/>
<text text-anchor="middle" x="241.5" y="-245.8" font-family="Helvetica,sans-Serif" font-weight="bold" font-size="9.00">kernelType</text>
</g>
<!-- data.ts -->
<g id="node1" class="node">
<title>data.ts</title>
<g id="a_node1"><a xlink:href="data.ts" xlink:title="data.ts">
<path fill="#ddfeff" stroke="black" d="M436.5,-545C436.5,-545 394.5,-545 394.5,-545 391.5,-545 388.5,-542 388.5,-539 388.5,-539 388.5,-533 388.5,-533 388.5,-530 391.5,-527 394.5,-527 394.5,-527 436.5,-527 436.5,-527 439.5,-527 442.5,-530 442.5,-533 442.5,-533 442.5,-539 442.5,-539 442.5,-542 439.5,-545 436.5,-545"/>
<text text-anchor="middle" x="415.5" y="-533.8" font-family="Helvetica,sans-Serif" font-size="9.00">data.ts</text>
</a>
</g>
</g>
<!-- kernelType/binary.ts -->
<g id="node2" class="node">
<title>kernelType/binary.ts</title>
<g id="a_node2"><a xlink:href="kernelType/binary.ts" xlink:title="binary.ts">
<path fill="#ddfeff" stroke="black" d="M190,-141C190,-141 148,-141 148,-141 145,-141 142,-138 142,-135 142,-135 142,-129 142,-129 142,-126 145,-123 148,-123 148,-123 190,-123 190,-123 193,-123 196,-126 196,-129 196,-129 196,-135 196,-135 196,-138 193,-141 190,-141"/>
<text text-anchor="middle" x="169" y="-129.8" font-family="Helvetica,sans-Serif" font-size="9.00">binary.ts</text>
</a>
</g>
</g>
<!-- kernelType/codec.ts -->
<g id="node3" class="node">
<title>kernelType/codec.ts</title>
<g id="a_node3"><a xlink:href="kernelType/codec.ts" xlink:title="codec.ts">
<path fill="#ddfeff" stroke="black" d="M335,-201C335,-201 293,-201 293,-201 290,-201 287,-198 287,-195 287,-195 287,-189 287,-189 287,-186 290,-183 293,-183 293,-183 335,-183 335,-183 338,-183 341,-186 341,-189 341,-189 341,-195 341,-195 341,-198 338,-201 335,-201"/>
<text text-anchor="middle" x="314" y="-189.8" font-family="Helvetica,sans-Serif" font-size="9.00">codec.ts</text>
</a>
</g>
</g>
<!-- kernelType/binary.ts&#45;&gt;kernelType/codec.ts -->
<g id="edge1" class="edge">
<title>kernelType/binary.ts&#45;&gt;kernelType/codec.ts</title>
<path fill="none" stroke="#000000" stroke-width="2" stroke-opacity="0.200000" d="M191.66,-141.01C197.25,-143.15 203.3,-145.3 209,-147 237.32,-155.44 247.29,-148.36 274,-161 283.27,-165.39 292.33,-172.37 299.37,-178.59"/>
<polygon fill="#000000" fill-opacity="0.200000" stroke="#000000" stroke-width="2" stroke-opacity="0.200000" points="298.06,-180.24 303.91,-182.74 300.9,-177.14 298.06,-180.24"/>
</g>
<!-- kernelType/int32.ts -->
<g id="node4" class="node">
<title>kernelType/int32.ts</title>
<g id="a_node4"><a xlink:href="kernelType/int32.ts" xlink:title="int32.ts">
<path fill="#ddfeff" stroke="black" d="M262.5,-199C262.5,-199 220.5,-199 220.5,-199 217.5,-199 214.5,-196 214.5,-193 214.5,-193 214.5,-187 214.5,-187 214.5,-184 217.5,-181 220.5,-181 220.5,-181 262.5,-181 262.5,-181 265.5,-181 268.5,-184 268.5,-187 268.5,-187 268.5,-193 268.5,-193 268.5,-196 265.5,-199 262.5,-199"/>
<text text-anchor="middle" x="241.5" y="-187.8" font-family="Helvetica,sans-Serif" font-size="9.00">int32.ts</text>
</a>
</g>
</g>
<!-- kernelType/binary.ts&#45;&gt;kernelType/int32.ts -->
<g id="edge2" class="edge">
<title>kernelType/binary.ts&#45;&gt;kernelType/int32.ts</title>
<path fill="none" stroke="#000000" stroke-width="2" stroke-opacity="0.200000" d="M187.17,-141.1C190.19,-142.93 193.25,-144.93 196,-147 202.46,-151.87 216.7,-165.87 227.35,-176.59"/>
<polygon fill="#000000" fill-opacity="0.200000" stroke="#000000" stroke-width="2" stroke-opacity="0.200000" points="225.94,-178.16 231.65,-180.95 228.93,-175.2 225.94,-178.16"/>
</g>
<!-- node_modules/js&#45;ts&#45;code&#45;generator -->
<g id="node5" class="node">
<title>node_modules/js&#45;ts&#45;code&#45;generator</title>
<g id="a_node5"><a xlink:href="node_modules/js-ts-code-generator" xlink:title="js&#45;ts&#45;code&#45;generator">
<polygon fill="#c40b0a" fill-opacity="0.101961" stroke="black" points="466,-307 367,-307 365,-305 365,-289 464,-289 466,-291 466,-307"/>
<polyline fill="none" stroke="black" points="464,-305 365,-305 "/>
<polyline fill="none" stroke="black" points="464,-305 464,-289 "/>
<polyline fill="none" stroke="black" points="464,-305 466,-307 "/>
<text text-anchor="middle" x="415.5" y="-295.8" font-family="Helvetica,sans-Serif" font-size="9.00" fill="#c40b0a">js&#45;ts&#45;code&#45;generator</text>
</a>
</g>
</g>
<!-- kernelType/binary.ts&#45;&gt;node_modules/js&#45;ts&#45;code&#45;generator -->
<g id="edge3" class="edge">
<title>kernelType/binary.ts&#45;&gt;node_modules/js&#45;ts&#45;code&#45;generator</title>
<path fill="none" stroke="#000000" stroke-opacity="0.200000" d="M189.9,-141.04C192.21,-142.75 194.33,-144.73 196,-147 211.65,-168.28 192.95,-184.02 209,-205 254.18,-264.05 287.68,-256.1 357,-283 360.81,-284.48 364.82,-285.86 368.88,-287.14"/>
<polygon fill="#000000" fill-opacity="0.200000" stroke="#000000" stroke-opacity="0.200000" points="368.49,-289.21 374.84,-288.93 369.7,-285.19 368.49,-289.21"/>
</g>
<!-- kernelType/codec.ts&#45;&gt;node_modules/js&#45;ts&#45;code&#45;generator -->
<g id="edge5" class="edge">
<title>kernelType/codec.ts&#45;&gt;node_modules/js&#45;ts&#45;code&#45;generator</title>
<path fill="none" stroke="#000000" stroke-opacity="0.200000" d="M339.29,-201C343.06,-203.39 346.52,-206.35 349,-210 367.34,-237 335.67,-258.3 357,-283 357.86,-284 358.78,-284.93 359.74,-285.8"/>
<polygon fill="#000000" fill-opacity="0.200000" stroke="#000000" stroke-opacity="0.200000" points="358.89,-287.79 364.95,-289.71 361.41,-284.43 358.89,-287.79"/>
</g>
<!-- util.ts -->
<g id="node6" class="node">
<title>util.ts</title>
<g id="a_node6"><a xlink:href="util.ts" xlink:title="util.ts">
<path fill="#ddfeff" stroke="black" d="M335,-413C335,-413 293,-413 293,-413 290,-413 287,-410 287,-407 287,-407 287,-401 287,-401 287,-398 290,-395 293,-395 293,-395 335,-395 335,-395 338,-395 341,-398 341,-401 341,-401 341,-407 341,-407 341,-410 338,-413 335,-413"/>
<text text-anchor="middle" x="314" y="-401.8" font-family="Helvetica,sans-Serif" font-size="9.00">util.ts</text>
</a>
</g>
</g>
<!-- kernelType/codec.ts&#45;&gt;util.ts -->
<g id="edge4" class="edge">
<title>kernelType/codec.ts&#45;&gt;util.ts</title>
<path fill="none" stroke="#000000" stroke-width="2" stroke-opacity="0.200000" d="M314,-201.11C314,-263.68 314,-326.26 314,-388.83"/>
<polygon fill="#000000" fill-opacity="0.200000" stroke="#000000" stroke-width="2" stroke-opacity="0.200000" points="311.9,-388.89 314,-394.89 316.1,-388.89 311.9,-388.89"/>
</g>
<!-- kernelType/int32.ts&#45;&gt;kernelType/codec.ts -->
<g id="edge13" class="edge">
<title>kernelType/int32.ts&#45;&gt;kernelType/codec.ts</title>
<path fill="none" stroke="#000000" stroke-width="2" stroke-opacity="0.200000" d="M268.75,-190.74C272.66,-190.86 276.72,-190.97 280.73,-191.08"/>
<polygon fill="#000000" fill-opacity="0.200000" stroke="#000000" stroke-width="2" stroke-opacity="0.200000" points="280.9,-193.19 286.96,-191.26 281.02,-188.99 280.9,-193.19"/>
</g>
<!-- kernelType/int32.ts&#45;&gt;node_modules/js&#45;ts&#45;code&#45;generator -->
<g id="edge14" class="edge">
<title>kernelType/int32.ts&#45;&gt;node_modules/js&#45;ts&#45;code&#45;generator</title>
<path fill="none" stroke="#000000" stroke-opacity="0.200000" d="M259.37,-180.84C282.7,-169.55 324.69,-154.45 349,-177 366.32,-193.06 341.86,-264.86 357,-283 357.84,-284.01 358.74,-284.96 359.7,-285.84"/>
<polygon fill="#000000" fill-opacity="0.200000" stroke="#000000" stroke-opacity="0.200000" points="358.81,-287.81 364.84,-289.8 361.37,-284.48 358.81,-287.81"/>
</g>
<!-- kernelType/int32.ts&#45;&gt;util.ts -->
<g id="edge12" class="edge">
<title>kernelType/int32.ts&#45;&gt;util.ts</title>
<path fill="none" stroke="#000000" stroke-width="2" stroke-opacity="0.200000" d="M245.53,-199.2C256.51,-232.53 294.29,-347.22 307.99,-388.79"/>
<polygon fill="#000000" fill-opacity="0.200000" stroke="#000000" stroke-width="2" stroke-opacity="0.200000" points="306.03,-389.56 309.9,-394.6 310.02,-388.24 306.03,-389.56"/>
</g>
<!-- util.ts&#45;&gt;data.ts -->
<g id="edge33" class="edge">
<title>util.ts&#45;&gt;data.ts</title>
<path fill="none" stroke="#000000" stroke-width="2" stroke-opacity="0.200000" d="M321.84,-413.07C338.88,-435.68 383.33,-494.65 403.85,-521.86"/>
<polygon fill="#000000" fill-opacity="0.200000" stroke="#000000" stroke-width="2" stroke-opacity="0.200000" points="402.32,-523.34 407.61,-526.86 405.68,-520.81 402.32,-523.34"/>
</g>
<!-- util.ts&#45;&gt;node_modules/js&#45;ts&#45;code&#45;generator -->
<g id="edge34" class="edge">
<title>util.ts&#45;&gt;node_modules/js&#45;ts&#45;code&#45;generator</title>
<path fill="none" stroke="#000000" stroke-opacity="0.200000" d="M335.72,-394.91C340.34,-392.39 345.05,-389.39 349,-386 374.29,-364.31 395.59,-331.18 406.56,-312.37"/>
<polygon fill="#000000" fill-opacity="0.200000" stroke="#000000" stroke-opacity="0.200000" points="408.46,-313.27 409.62,-307.02 404.82,-311.18 408.46,-313.27"/>
</g>
<!-- kernelType/dict.ts -->
<g id="node7" class="node">
<title>kernelType/dict.ts</title>
<g id="a_node7"><a xlink:href="kernelType/dict.ts" xlink:title="dict.ts">
<path fill="#ddfeff" stroke="black" d="M190,-201C190,-201 148,-201 148,-201 145,-201 142,-198 142,-195 142,-195 142,-189 142,-189 142,-186 145,-183 148,-183 148,-183 190,-183 190,-183 193,-183 196,-186 196,-189 196,-189 196,-195 196,-195 196,-198 193,-201 190,-201"/>
<text text-anchor="middle" x="169" y="-189.8" font-family="Helvetica,sans-Serif" font-size="9.00">dict.ts</text>
</a>
</g>
</g>
<!-- kernelType/dict.ts&#45;&gt;kernelType/codec.ts -->
<g id="edge7" class="edge">
<title>kernelType/dict.ts&#45;&gt;kernelType/codec.ts</title>
<path fill="none" stroke="#000000" stroke-width="2" stroke-opacity="0.200000" d="M193.2,-201.09C198.33,-202.71 203.79,-204.15 209,-205 237.52,-209.63 245.48,-209.63 274,-205 277.26,-204.47 280.61,-203.71 283.92,-202.82"/>
<polygon fill="#000000" fill-opacity="0.200000" stroke="#000000" stroke-width="2" stroke-opacity="0.200000" points="284.63,-204.79 289.8,-201.09 283.45,-200.77 284.63,-204.79"/>
</g>
<!-- kernelType/dict.ts&#45;&gt;kernelType/int32.ts -->
<g id="edge8" class="edge">
<title>kernelType/dict.ts&#45;&gt;kernelType/int32.ts</title>
<path fill="none" stroke="#000000" stroke-width="2" stroke-opacity="0.200000" d="M196.25,-191.26C200.16,-191.14 204.22,-191.03 208.23,-190.92"/>
<polygon fill="#000000" fill-opacity="0.200000" stroke="#000000" stroke-width="2" stroke-opacity="0.200000" points="208.52,-193.01 214.46,-190.74 208.4,-188.81 208.52,-193.01"/>
</g>
<!-- kernelType/dict.ts&#45;&gt;node_modules/js&#45;ts&#45;code&#45;generator -->
<g id="edge9" class="edge">
<title>kernelType/dict.ts&#45;&gt;node_modules/js&#45;ts&#45;code&#45;generator</title>
<path fill="none" stroke="#000000" stroke-opacity="0.200000" d="M190.26,-201.16C192.45,-202.84 194.45,-204.78 196,-207 215.37,-234.74 183.98,-259.23 209,-282 253.07,-322.11 326.76,-316.81 372.89,-308.2"/>
<polygon fill="#000000" fill-opacity="0.200000" stroke="#000000" stroke-opacity="0.200000" points="373.44,-310.24 378.93,-307.03 372.64,-306.11 373.44,-310.24"/>
</g>
<!-- kernelType/dict.ts&#45;&gt;util.ts -->
<g id="edge6" class="edge">
<title>kernelType/dict.ts&#45;&gt;util.ts</title>
<path fill="none" stroke="#000000" stroke-width="2" stroke-opacity="0.200000" d="M190.41,-201.06C192.58,-202.76 194.53,-204.73 196,-207 226.85,-254.62 179.82,-285.34 209,-334 218.71,-350.19 263,-376.57 290.55,-391.9"/>
<polygon fill="#000000" fill-opacity="0.200000" stroke="#000000" stroke-width="2" stroke-opacity="0.200000" points="289.56,-393.75 295.83,-394.82 291.59,-390.08 289.56,-393.75"/>
</g>
<!-- kernelType/hexString.ts -->
<g id="node8" class="node">
<title>kernelType/hexString.ts</title>
<g id="a_node8"><a xlink:href="kernelType/hexString.ts" xlink:title="hexString.ts">
<path fill="#ddfeff" stroke="black" d="M268,-141C268,-141 215,-141 215,-141 212,-141 209,-138 209,-135 209,-135 209,-129 209,-129 209,-126 212,-123 215,-123 215,-123 268,-123 268,-123 271,-123 274,-126 274,-129 274,-129 274,-135 274,-135 274,-138 271,-141 268,-141"/>
<text text-anchor="middle" x="241.5" y="-129.8" font-family="Helvetica,sans-Serif" font-size="9.00">hexString.ts</text>
</a>
</g>
</g>
<!-- kernelType/hexString.ts&#45;&gt;kernelType/codec.ts -->
<g id="edge10" class="edge">
<title>kernelType/hexString.ts&#45;&gt;kernelType/codec.ts</title>
<path fill="none" stroke="#000000" stroke-width="2" stroke-opacity="0.200000" d="M260.44,-141C265.04,-143.64 269.86,-146.71 274,-150 284.33,-158.2 294.41,-169.16 301.74,-177.83"/>
<polygon fill="#000000" fill-opacity="0.200000" stroke="#000000" stroke-width="2" stroke-opacity="0.200000" points="300.48,-179.6 305.92,-182.89 303.72,-176.92 300.48,-179.6"/>
</g>
<!-- kernelType/hexString.ts&#45;&gt;node_modules/js&#45;ts&#45;code&#45;generator -->
<g id="edge11" class="edge">
<title>kernelType/hexString.ts&#45;&gt;node_modules/js&#45;ts&#45;code&#45;generator</title>
<path fill="none" stroke="#000000" stroke-opacity="0.200000" d="M250.21,-141.11C257.07,-149.52 267.05,-162.56 274,-175 281.48,-188.4 276.43,-195.87 287,-207 307.95,-229.06 330.57,-211.8 349,-236 361.84,-252.86 342.68,-267.38 357,-283 357.86,-283.94 358.78,-284.83 359.73,-285.66"/>
<polygon fill="#000000" fill-opacity="0.200000" stroke="#000000" stroke-opacity="0.200000" points="358.77,-287.56 364.86,-289.4 361.25,-284.16 358.77,-287.56"/>
</g>
<!-- kernelType/list.ts -->
<g id="node9" class="node">
<title>kernelType/list.ts</title>
<g id="a_node9"><a xlink:href="kernelType/list.ts" xlink:title="list.ts">
<path fill="#ddfeff" stroke="black" d="M190,-171C190,-171 148,-171 148,-171 145,-171 142,-168 142,-165 142,-165 142,-159 142,-159 142,-156 145,-153 148,-153 148,-153 190,-153 190,-153 193,-153 196,-156 196,-159 196,-159 196,-165 196,-165 196,-168 193,-171 190,-171"/>
<text text-anchor="middle" x="169" y="-159.8" font-family="Helvetica,sans-Serif" font-size="9.00">list.ts</text>
</a>
</g>
</g>
<!-- kernelType/list.ts&#45;&gt;kernelType/codec.ts -->
<g id="edge16" class="edge">
<title>kernelType/list.ts&#45;&gt;kernelType/codec.ts</title>
<path fill="none" stroke="#000000" stroke-width="2" stroke-opacity="0.200000" d="M196.04,-163.19C217.33,-164.64 248.03,-167.88 274,-175 279.12,-176.4 284.44,-178.36 289.44,-180.45"/>
<polygon fill="#000000" fill-opacity="0.200000" stroke="#000000" stroke-width="2" stroke-opacity="0.200000" points="288.8,-182.46 295.14,-182.93 290.48,-178.61 288.8,-182.46"/>
</g>
<!-- kernelType/list.ts&#45;&gt;kernelType/int32.ts -->
<g id="edge17" class="edge">
<title>kernelType/list.ts&#45;&gt;kernelType/int32.ts</title>
<path fill="none" stroke="#000000" stroke-width="2" stroke-opacity="0.200000" d="M192.69,-171.01C198.74,-173.41 205.34,-176.04 211.66,-178.55"/>
<polygon fill="#000000" fill-opacity="0.200000" stroke="#000000" stroke-width="2" stroke-opacity="0.200000" points="211.01,-180.55 217.36,-180.81 212.56,-176.64 211.01,-180.55"/>
</g>
<!-- kernelType/list.ts&#45;&gt;node_modules/js&#45;ts&#45;code&#45;generator -->
<g id="edge18" class="edge">
<title>kernelType/list.ts&#45;&gt;node_modules/js&#45;ts&#45;code&#45;generator</title>
<path fill="none" stroke="#000000" stroke-opacity="0.200000" d="M190.28,-171.15C192.47,-172.83 194.46,-174.77 196,-177 216.25,-206.26 184.33,-230.36 209,-256 229.3,-277.1 305.18,-288.26 358.8,-293.65"/>
<polygon fill="#000000" fill-opacity="0.200000" stroke="#000000" stroke-opacity="0.200000" points="358.73,-295.75 364.9,-294.25 359.13,-291.57 358.73,-295.75"/>
</g>
<!-- kernelType/list.ts&#45;&gt;util.ts -->
<g id="edge15" class="edge">
<title>kernelType/list.ts&#45;&gt;util.ts</title>
<path fill="none" stroke="#000000" stroke-width="2" stroke-opacity="0.200000" d="M190.37,-171.09C192.54,-172.78 194.5,-174.74 196,-177 221.98,-216.19 185.47,-241.29 209,-282 227.1,-313.32 250.48,-303.51 274,-331 289.17,-348.73 300.79,-373.35 307.26,-388.98"/>
<polygon fill="#000000" fill-opacity="0.200000" stroke="#000000" stroke-width="2" stroke-opacity="0.200000" points="305.37,-389.91 309.56,-394.69 309.27,-388.34 305.37,-389.91"/>
</g>
<!-- kernelType/string.ts -->
<g id="node10" class="node">
<title>kernelType/string.ts</title>
<g id="a_node10"><a xlink:href="kernelType/string.ts" xlink:title="string.ts">
<path fill="#ddfeff" stroke="black" d="M190,-231C190,-231 148,-231 148,-231 145,-231 142,-228 142,-225 142,-225 142,-219 142,-219 142,-216 145,-213 148,-213 148,-213 190,-213 190,-213 193,-213 196,-216 196,-219 196,-219 196,-225 196,-225 196,-228 193,-231 190,-231"/>
<text text-anchor="middle" x="169" y="-219.8" font-family="Helvetica,sans-Serif" font-size="9.00">string.ts</text>
</a>
</g>
</g>
<!-- kernelType/string.ts&#45;&gt;kernelType/codec.ts -->
<g id="edge20" class="edge">
<title>kernelType/string.ts&#45;&gt;kernelType/codec.ts</title>
<path fill="none" stroke="#000000" stroke-width="2" stroke-opacity="0.200000" d="M196.08,-221.28C217.39,-220.14 248.1,-217.27 274,-210 279.59,-208.43 285.39,-206.15 290.75,-203.74"/>
<polygon fill="#000000" fill-opacity="0.200000" stroke="#000000" stroke-width="2" stroke-opacity="0.200000" points="291.83,-205.55 296.36,-201.1 290.04,-201.75 291.83,-205.55"/>
</g>
<!-- kernelType/string.ts&#45;&gt;kernelType/int32.ts -->
<g id="edge21" class="edge">
<title>kernelType/string.ts&#45;&gt;kernelType/int32.ts</title>
<path fill="none" stroke="#000000" stroke-width="2" stroke-opacity="0.200000" d="M190.01,-212.92C197.69,-209.43 206.55,-205.41 214.69,-201.71"/>
<polygon fill="#000000" fill-opacity="0.200000" stroke="#000000" stroke-width="2" stroke-opacity="0.200000" points="215.6,-203.61 220.19,-199.22 213.86,-199.79 215.6,-203.61"/>
</g>
<!-- kernelType/string.ts&#45;&gt;node_modules/js&#45;ts&#45;code&#45;generator -->
<g id="edge22" class="edge">
<title>kernelType/string.ts&#45;&gt;node_modules/js&#45;ts&#45;code&#45;generator</title>
<path fill="none" stroke="#000000" stroke-opacity="0.200000" d="M169.94,-231.3C170.37,-253.55 174.93,-309.79 209,-334 259.72,-370.04 288.73,-349.47 349,-334 366.6,-329.48 384.54,-319.14 397.18,-310.69"/>
<polygon fill="#000000" fill-opacity="0.200000" stroke="#000000" stroke-opacity="0.200000" points="398.5,-312.34 402.26,-307.21 396.12,-308.87 398.5,-312.34"/>
</g>
<!-- kernelType/string.ts&#45;&gt;util.ts -->
<g id="edge19" class="edge">
<title>kernelType/string.ts&#45;&gt;util.ts</title>
<path fill="none" stroke="#000000" stroke-width="2" stroke-opacity="0.200000" d="M170.87,-231.18C174.04,-262.48 185.97,-364.35 209,-386 227.92,-403.78 257.75,-407.39 280.62,-407.07"/>
<polygon fill="#000000" fill-opacity="0.200000" stroke="#000000" stroke-width="2" stroke-opacity="0.200000" points="280.94,-409.17 286.87,-406.89 280.81,-404.97 280.94,-409.17"/>
</g>
<!-- main.ts -->
<g id="node11" class="node">
<title>main.ts</title>
<g id="a_node11"><a xlink:href="main.ts" xlink:title="main.ts">
<path fill="#ddfeff" stroke="black" d="M48,-493C48,-493 6,-493 6,-493 3,-493 0,-490 0,-487 0,-487 0,-481 0,-481 0,-478 3,-475 6,-475 6,-475 48,-475 48,-475 51,-475 54,-478 54,-481 54,-481 54,-487 54,-487 54,-490 51,-493 48,-493"/>
<text text-anchor="middle" x="27" y="-481.8" font-family="Helvetica,sans-Serif" font-size="9.00">main.ts</text>
</a>
</g>
</g>
<!-- main.ts&#45;&gt;data.ts -->
<g id="edge23" class="edge">
<title>main.ts&#45;&gt;data.ts</title>
<path fill="none" stroke="#000000" stroke-width="2" stroke-opacity="0.200000" d="M29.19,-493.23C32.06,-511.48 41.16,-552.14 67,-572 103.03,-599.7 122.55,-588 168,-588 168,-588 168,-588 242.5,-588 290.36,-588 303.65,-587.32 349,-572 365.78,-566.33 383.29,-556.47 395.98,-548.5"/>
<polygon fill="#000000" fill-opacity="0.200000" stroke="#000000" stroke-width="2" stroke-opacity="0.200000" points="397.18,-550.23 401.1,-545.22 394.92,-546.69 397.18,-550.23"/>
</g>
<!-- main.ts&#45;&gt;node_modules/js&#45;ts&#45;code&#45;generator -->
<g id="edge29" class="edge">
<title>main.ts&#45;&gt;node_modules/js&#45;ts&#45;code&#45;generator</title>
<path fill="none" stroke="#000000" stroke-opacity="0.200000" d="M36.87,-493.25C57.66,-513.92 112.08,-562 168,-562 168,-562 168,-562 242.5,-562 362.09,-562 402.86,-369.48 412.22,-313.25"/>
<polygon fill="#000000" fill-opacity="0.200000" stroke="#000000" stroke-opacity="0.200000" points="414.33,-313.34 413.21,-307.09 410.18,-312.68 414.33,-313.34"/>
</g>
<!-- main.ts&#45;&gt;util.ts -->
<g id="edge26" class="edge">
<title>main.ts&#45;&gt;util.ts</title>
<path fill="none" stroke="#000000" stroke-width="2" stroke-opacity="0.200000" d="M54.19,-490.38C102.04,-500.47 205.04,-514.78 274,-471 292.66,-459.16 303.43,-434.94 308.75,-419.1"/>
<polygon fill="#000000" fill-opacity="0.200000" stroke="#000000" stroke-width="2" stroke-opacity="0.200000" points="310.78,-419.63 310.59,-413.28 306.78,-418.37 310.78,-419.63"/>
</g>
<!-- main.ts&#45;&gt;kernelType/hexString.ts -->
<g id="edge24" class="edge">
<title>main.ts&#45;&gt;kernelType/hexString.ts</title>
<path fill="none" stroke="#000000" stroke-width="2" stroke-opacity="0.200000" d="M28.51,-474.95C31.12,-430.29 43.79,-233.25 67,-177 85.61,-131.89 90.21,-111.55 134,-90 158.72,-77.83 170.39,-79.82 196,-90 210.12,-95.61 222.36,-108.07 230.41,-117.97"/>
<polygon fill="#000000" fill-opacity="0.200000" stroke="#000000" stroke-width="2" stroke-opacity="0.200000" points="228.87,-119.42 234.22,-122.86 232.19,-116.84 228.87,-119.42"/>
</g>
<!-- typeAlias.ts -->
<g id="node12" class="node">
<title>typeAlias.ts</title>
<g id="a_node12"><a xlink:href="typeAlias.ts" xlink:title="typeAlias.ts">
<path fill="#ddfeff" stroke="black" d="M267,-465C267,-465 216,-465 216,-465 213,-465 210,-462 210,-459 210,-459 210,-453 210,-453 210,-450 213,-447 216,-447 216,-447 267,-447 267,-447 270,-447 273,-450 273,-453 273,-453 273,-459 273,-459 273,-462 270,-465 267,-465"/>
<text text-anchor="middle" x="241.5" y="-453.8" font-family="Helvetica,sans-Serif" font-size="9.00">typeAlias.ts</text>
</a>
</g>
</g>
<!-- main.ts&#45;&gt;typeAlias.ts -->
<g id="edge25" class="edge">
<title>main.ts&#45;&gt;typeAlias.ts</title>
<path fill="none" stroke="#000000" stroke-width="2" stroke-opacity="0.200000" d="M54.06,-480.57C91.56,-475.63 160.92,-466.49 203.65,-460.86"/>
<polygon fill="#000000" fill-opacity="0.200000" stroke="#000000" stroke-width="2" stroke-opacity="0.200000" points="204.08,-462.92 209.76,-460.05 203.53,-458.75 204.08,-462.92"/>
</g>
<!-- variable.ts -->
<g id="node13" class="node">
<title>variable.ts</title>
<g id="a_node13"><a xlink:href="variable.ts" xlink:title="variable.ts">
<path fill="#ddfeff" stroke="black" d="M120,-201C120,-201 73,-201 73,-201 70,-201 67,-198 67,-195 67,-195 67,-189 67,-189 67,-186 70,-183 73,-183 73,-183 120,-183 120,-183 123,-183 126,-186 126,-189 126,-189 126,-195 126,-195 126,-198 123,-201 120,-201"/>
<text text-anchor="middle" x="96.5" y="-189.8" font-family="Helvetica,sans-Serif" font-size="9.00">variable.ts</text>
</a>
</g>
</g>
<!-- main.ts&#45;&gt;variable.ts -->
<g id="edge27" class="edge">
<title>main.ts&#45;&gt;variable.ts</title>
<path fill="none" stroke="#000000" stroke-width="2" stroke-opacity="0.200000" d="M30.09,-474.94C39.72,-433.31 79.75,-260.11 91.96,-207.33"/>
<polygon fill="#000000" fill-opacity="0.200000" stroke="#000000" stroke-width="2" stroke-opacity="0.200000" points="94.06,-207.56 93.36,-201.24 89.97,-206.62 94.06,-207.56"/>
</g>
<!-- node_modules/elm&#45;code&#45;generator -->
<g id="node14" class="node">
<title>node_modules/elm&#45;code&#45;generator</title>
<g id="a_node14"><a xlink:href="node_modules/elm-code-generator" xlink:title="elm&#45;code&#45;generator">
<polygon fill="#c40b0a" fill-opacity="0.101961" stroke="black" points="464.5,-277 368.5,-277 366.5,-275 366.5,-259 462.5,-259 464.5,-261 464.5,-277"/>
<polyline fill="none" stroke="black" points="462.5,-275 366.5,-275 "/>
<polyline fill="none" stroke="black" points="462.5,-275 462.5,-259 "/>
<polyline fill="none" stroke="black" points="462.5,-275 464.5,-277 "/>
<text text-anchor="middle" x="415.5" y="-265.8" font-family="Helvetica,sans-Serif" font-size="9.00" fill="#c40b0a">elm&#45;code&#45;generator</text>
</a>
</g>
</g>
<!-- main.ts&#45;&gt;node_modules/elm&#45;code&#45;generator -->
<g id="edge28" class="edge">
<title>main.ts&#45;&gt;node_modules/elm&#45;code&#45;generator</title>
<path fill="none" stroke="#000000" stroke-opacity="0.200000" d="M28.02,-474.84C28.29,-422.52 31.42,-161.36 67,-91 94.27,-37.08 107.58,0 168,0 168,0 168,0 242.5,0 363.36,0 403.23,-195.44 412.3,-252.52"/>
<polygon fill="#000000" fill-opacity="0.200000" stroke="#000000" stroke-opacity="0.200000" points="410.27,-253.16 413.26,-258.77 414.42,-252.53 410.27,-253.16"/>
</g>
<!-- typeAlias.ts&#45;&gt;kernelType/codec.ts -->
<g id="edge30" class="edge">
<title>typeAlias.ts&#45;&gt;kernelType/codec.ts</title>
<path fill="none" stroke="#000000" stroke-width="2" stroke-opacity="0.200000" d="M244.93,-446.91C255.31,-408.04 296.04,-255.52 309.01,-206.94"/>
<polygon fill="#000000" fill-opacity="0.200000" stroke="#000000" stroke-width="2" stroke-opacity="0.200000" points="311.06,-207.39 310.58,-201.05 307.01,-206.3 311.06,-207.39"/>
</g>
<!-- typeAlias.ts&#45;&gt;node_modules/js&#45;ts&#45;code&#45;generator -->
<g id="edge32" class="edge">
<title>typeAlias.ts&#45;&gt;node_modules/js&#45;ts&#45;code&#45;generator</title>
<path fill="none" stroke="#000000" stroke-opacity="0.200000" d="M273.01,-451.53C296.08,-446.81 327.38,-437.38 349,-419 383.23,-389.91 402.52,-338.26 410.34,-312.89"/>
<polygon fill="#000000" fill-opacity="0.200000" stroke="#000000" stroke-opacity="0.200000" points="412.38,-313.39 412.09,-307.04 408.36,-312.19 412.38,-313.39"/>
</g>
<!-- typeAlias.ts&#45;&gt;util.ts -->
<g id="edge31" class="edge">
<title>typeAlias.ts&#45;&gt;util.ts</title>
<path fill="none" stroke="#000000" stroke-width="2" stroke-opacity="0.200000" d="M259.88,-446.88C264.58,-444.2 269.59,-441.14 274,-438 282.68,-431.83 291.69,-424.07 298.86,-417.53"/>
<polygon fill="#000000" fill-opacity="0.200000" stroke="#000000" stroke-width="2" stroke-opacity="0.200000" points="300.53,-418.85 303.51,-413.23 297.68,-415.77 300.53,-418.85"/>
</g>
<!-- variable.ts&#45;&gt;data.ts -->
<g id="edge35" class="edge">
<title>variable.ts&#45;&gt;data.ts</title>
<path fill="none" stroke="#000000" stroke-width="2" stroke-opacity="0.200000" d="M97.93,-201.01C99.94,-239.95 109.31,-393.57 134,-434 186.35,-519.72 320.25,-534.11 382.18,-536.04"/>
<polygon fill="#000000" fill-opacity="0.200000" stroke="#000000" stroke-width="2" stroke-opacity="0.200000" points="382.25,-538.14 388.3,-536.2 382.36,-533.95 382.25,-538.14"/>
</g>
<!-- variable.ts&#45;&gt;kernelType/binary.ts -->
<g id="edge36" class="edge">
<title>variable.ts&#45;&gt;kernelType/binary.ts</title>
<path fill="none" stroke="#000000" stroke-width="2" stroke-opacity="0.200000" d="M102.94,-182.98C109.32,-173.05 120.73,-157.14 134,-147 135.26,-146.04 136.58,-145.13 137.96,-144.26"/>
<polygon fill="#000000" fill-opacity="0.200000" stroke="#000000" stroke-width="2" stroke-opacity="0.200000" points="139.25,-145.94 143.43,-141.14 137.17,-142.29 139.25,-145.94"/>
</g>
<!-- variable.ts&#45;&gt;kernelType/codec.ts -->
<g id="edge37" class="edge">
<title>variable.ts&#45;&gt;kernelType/codec.ts</title>
<path fill="none" stroke="#000000" stroke-width="2" stroke-opacity="0.200000" d="M97.55,-182.91C98.22,-162.23 103.09,-111.77 134,-90 185.81,-53.51 226.04,-75.59 274,-117 292.44,-132.92 303.36,-159.72 308.76,-176.6"/>
<polygon fill="#000000" fill-opacity="0.200000" stroke="#000000" stroke-width="2" stroke-opacity="0.200000" points="306.88,-177.62 310.63,-182.75 310.9,-176.4 306.88,-177.62"/>
</g>
<!-- variable.ts&#45;&gt;kernelType/int32.ts -->
<g id="edge40" class="edge">
<title>variable.ts&#45;&gt;kernelType/int32.ts</title>
<path fill="none" stroke="#000000" stroke-width="2" stroke-opacity="0.200000" d="M98.83,-182.79C101.77,-166.2 110.55,-131.67 134,-117 157.36,-102.39 172.97,-101.88 196,-117 208.15,-124.98 201.77,-134.39 209,-147 214.87,-157.24 222.71,-167.95 229.1,-176.12"/>
<polygon fill="#000000" fill-opacity="0.200000" stroke="#000000" stroke-width="2" stroke-opacity="0.200000" points="227.48,-177.46 232.86,-180.85 230.77,-174.84 227.48,-177.46"/>
</g>
<!-- variable.ts&#45;&gt;node_modules/js&#45;ts&#45;code&#45;generator -->
<g id="edge44" class="edge">
<title>variable.ts&#45;&gt;node_modules/js&#45;ts&#45;code&#45;generator</title>
<path fill="none" stroke="#000000" stroke-opacity="0.200000" d="M97.41,-201.21C97.6,-243.31 104.75,-417.65 209,-471 265.49,-499.91 302.65,-486.34 349,-443 388.01,-406.52 405.46,-342.41 411.66,-313.24"/>
<polygon fill="#000000" fill-opacity="0.200000" stroke="#000000" stroke-opacity="0.200000" points="413.74,-313.54 412.88,-307.24 409.63,-312.7 413.74,-313.54"/>
</g>
<!-- variable.ts&#45;&gt;util.ts -->
<g id="edge43" class="edge">
<title>variable.ts&#45;&gt;util.ts</title>
<path fill="none" stroke="#000000" stroke-width="2" stroke-opacity="0.200000" d="M98.9,-201.14C104.73,-235.64 130.56,-358.42 209,-406 230.31,-418.93 258.87,-417.33 280.67,-413.12"/>
<polygon fill="#000000" fill-opacity="0.200000" stroke="#000000" stroke-width="2" stroke-opacity="0.200000" points="281.19,-415.16 286.63,-411.87 280.33,-411.05 281.19,-415.16"/>
</g>
<!-- variable.ts&#45;&gt;kernelType/dict.ts -->
<g id="edge38" class="edge">
<title>variable.ts&#45;&gt;kernelType/dict.ts</title>
<path fill="none" stroke="#000000" stroke-width="2" stroke-opacity="0.200000" d="M126.18,-192C129.25,-192 132.4,-192 135.52,-192"/>
<polygon fill="#000000" fill-opacity="0.200000" stroke="#000000" stroke-width="2" stroke-opacity="0.200000" points="135.85,-194.1 141.85,-192 135.85,-189.9 135.85,-194.1"/>
</g>
<!-- variable.ts&#45;&gt;kernelType/hexString.ts -->
<g id="edge39" class="edge">
<title>variable.ts&#45;&gt;kernelType/hexString.ts</title>
<path fill="none" stroke="#000000" stroke-width="2" stroke-opacity="0.200000" d="M98.03,-182.82C99.69,-163.85 106.45,-120.56 134,-102 156.85,-86.61 169.65,-93.95 196,-102 207.07,-105.38 217.87,-112.55 226.06,-119.02"/>
<polygon fill="#000000" fill-opacity="0.200000" stroke="#000000" stroke-width="2" stroke-opacity="0.200000" points="224.84,-120.74 230.8,-122.93 227.51,-117.49 224.84,-120.74"/>
</g>
<!-- variable.ts&#45;&gt;kernelType/list.ts -->
<g id="edge41" class="edge">
<title>variable.ts&#45;&gt;kernelType/list.ts</title>
<path fill="none" stroke="#000000" stroke-width="2" stroke-opacity="0.200000" d="M118.65,-183C125.5,-180.09 133.19,-176.81 140.43,-173.73"/>
<polygon fill="#000000" fill-opacity="0.200000" stroke="#000000" stroke-width="2" stroke-opacity="0.200000" points="141.68,-175.48 146.37,-171.2 140.03,-171.62 141.68,-175.48"/>
</g>
<!-- variable.ts&#45;&gt;kernelType/string.ts -->
<g id="edge42" class="edge">
<title>variable.ts&#45;&gt;kernelType/string.ts</title>
<path fill="none" stroke="#000000" stroke-width="2" stroke-opacity="0.200000" d="M118.65,-201C125.5,-203.91 133.19,-207.19 140.43,-210.27"/>
<polygon fill="#000000" fill-opacity="0.200000" stroke="#000000" stroke-width="2" stroke-opacity="0.200000" points="140.03,-212.38 146.37,-212.8 141.68,-208.52 140.03,-212.38"/>
</g>
</g>
</svg>
